<?xml version="1.0" encoding="UTF-8" standalone="no"?>
<!-- Created with Inkscape (http://www.inkscape.org/) -->

<svg
   width="171.39334mm"
   height="68.30378mm"
   viewBox="0 0 171.39334 68.30378"
   version="1.1"
   id="svg1"
   xml:space="preserve"
   xmlns:inkscape="http://www.inkscape.org/namespaces/inkscape"
   xmlns:sodipodi="http://sodipodi.sourceforge.net/DTD/sodipodi-0.dtd"
   xmlns:xlink="http://www.w3.org/1999/xlink"
   xmlns="http://www.w3.org/2000/svg"
   xmlns:svg="http://www.w3.org/2000/svg"><sodipodi:namedview
     id="namedview1"
     pagecolor="#ffffff"
     bordercolor="#000000"
     borderopacity="0.25"
     inkscape:showpageshadow="2"
     inkscape:pageopacity="0.0"
     inkscape:pagecheckerboard="0"
     inkscape:deskcolor="#d1d1d1"
     inkscape:document-units="mm"
     inkscape:export-bgcolor="#ffffffff"><inkscape:page
       x="0"
       y="0"
       width="171.39334"
       height="68.30378"
       id="page2"
       margin="0"
       bleed="0" /></sodipodi:namedview><defs
     id="defs1"><style
       type="text/css"
       id="style1">*{stroke-linejoin: round; stroke-linecap: butt}</style><path
       id="m6727cdee2e"
       d="M 0,0 V 3.5"
       style="stroke:#000000;stroke-width:0.8" /><path
       id="LMRoman10-Regular-32"
       d="M 2874,1114 H 2714 C 2682,922 2637,640 2573,544 2528,493 2106,493 1965,493 H 813 l 678,659 c 999,883 1383,1229 1383,1869 0,729 -576,1241 -1357,1241 -723,0 -1197,-588 -1197,-1158 0,-358 320,-358 339,-358 109,0 333,76 333,339 0,166 -115,333 -339,333 -51,0 -64,0 -83,-7 147,416 492,653 864,653 582,0 857,-518 857,-1043 0,-512 -320,-1018 -672,-1415 L 390,237 C 320,166 320,154 320,0 h 2374 z"
       transform="scale(0.015625)" /><path
       id="LMRoman10-Regular-30"
       d="m 2944,2048 c 0,512 -32,1024 -256,1498 -294,614 -819,716 -1088,716 C 1216,4262 749,4096 486,3501 282,3059 250,2560 250,2048 250,1568 275,992 538,506 c 275,-519 742,-647 1056,-647 345,0 832,135 1113,743 205,441 237,940 237,1446 z m -531,77 c 0,-480 0,-915 -71,-1325 C 2246,192 1882,0 1594,0 1344,0 966,160 851,774 c -70,384 -70,973 -70,1351 0,409 0,832 51,1177 122,762 602,820 762,820 211,0 633,-116 755,-749 64,-359 64,-845 64,-1248 z"
       transform="scale(0.015625)" /><path
       id="LMRoman10-Regular-34"
       d="m 3014,1056 v 198 h -640 v 2912 c 0,128 0,167 -102,167 -58,0 -77,0 -128,-77 L 179,1254 V 1056 H 1882 V 499 c 0,-230 -13,-301 -487,-301 H 1261 V 0 c 262,19 595,19 864,19 269,0 608,0 870,-19 v 198 h -134 c -474,0 -487,71 -487,301 v 557 z M 1920,1254 H 358 l 1562,2388 z"
       transform="scale(0.015625)" /><path
       id="LMRoman10-Regular-36"
       d="m 2925,1306 c 0,812 -570,1427 -1280,1427 -435,0 -672,-327 -800,-634 v 154 c 0,1619 793,1849 1120,1849 153,0 422,-38 563,-256 -96,0 -352,0 -352,-288 0,-198 154,-294 294,-294 103,0 295,58 295,307 0,384 -282,691 -813,691 -819,0 -1683,-825 -1683,-2240 0,-1708 742,-2163 1337,-2163 711,0 1319,602 1319,1447 z m -576,6 c 0,-307 0,-627 -109,-858 C 2048,70 1754,38 1606,38 1203,38 1011,422 973,518 858,819 858,1331 858,1446 c 0,500 204,1140 780,1140 103,0 397,0 596,-397 115,-237 115,-563 115,-877 z"
       transform="scale(0.015625)" /><path
       id="LMRoman10-Regular-38"
       d="m 2925,1075 c 0,231 -71,519 -314,787 -121,135 -224,199 -633,455 460,237 774,569 774,992 0,589 -570,953 -1152,953 -640,0 -1158,-473 -1158,-1068 0,-116 12,-404 281,-704 71,-77 307,-237 467,-346 C 819,1958 269,1600 269,966 269,288 922,-141 1594,-141 c 723,0 1331,531 1331,1216 z m -455,2234 c 0,-365 -249,-672 -633,-896 l -794,512 c -294,192 -320,409 -320,518 0,391 416,659 871,659 467,0 876,-332 876,-793 z M 2605,845 C 2605,371 2125,38 1600,38 1050,38 589,435 589,966 c 0,372 205,781 749,1082 l 787,-499 c 179,-122 480,-314 480,-704 z"
       transform="scale(0.015625)" /><path
       id="LMRoman10-Regular-31"
       d="m 2682,0 v 198 h -205 c -576,0 -595,71 -595,308 v 3590 c 0,154 0,166 -148,166 C 1338,3853 774,3853 570,3853 v -199 c 128,0 505,0 838,167 V 506 C 1408,275 1389,198 813,198 H 608 V 0 c 224,19 781,19 1037,19 256,0 813,0 1037,-19 z"
       transform="scale(0.015625)" /><path
       id="Cmmi10-62"
       d="m 1106,-72 q -387,0 -603,303 -215,303 -215,710 0,59 29,232 30,174 30,215 l 619,2484 q 25,109 31,172 0,103 -416,103 -62,0 -62,84 3,16 14,56 11,41 28,63 17,22 48,22 l 863,69 q 78,0 78,-82 L 1075,2472 q 363,356 731,356 272,0 467,-144 196,-143 293,-378 97,-234 97,-500 0,-309 -121,-639 Q 2422,838 2209,555 1997,272 1712,100 1428,-72 1106,-72 Z m 13,169 q 219,0 409,183 191,183 310,411 128,256 239,695 111,439 111,702 0,228 -96,401 -95,174 -301,174 -232,0 -443,-171 -210,-170 -370,-404 L 800,1363 Q 697,959 691,716 691,475 795,286 900,97 1119,97 Z"
       transform="scale(0.015625)" /><path
       id="Cmmi10-3d"
       d="m 359,-1472 q 0,19 7,25 l 2225,6169 q 12,37 43,57 32,21 72,21 57,0 92,-35 36,-34 36,-93 v -25 L 609,-1522 q -37,-78 -121,-78 -54,0 -92,38 -37,37 -37,90 z"
       transform="scale(0.015625)" /><path
       id="Cmmi10-ba"
       d="m 403,0 q -78,0 -78,84 l 547,2175 q 25,110 31,172 0,103 -415,103 -66,0 -66,85 3,15 14,56 11,41 28,62 17,22 49,22 l 862,69 q 78,0 78,-81 L 825,238 q 506,168 932,527 427,360 722,847 296,488 427,1013 25,91 100,147 75,56 169,56 84,0 137,-50 54,-50 54,-134 0,-103 -85,-314 -84,-211 -165,-377 Q 2863,1450 2444,1031 2181,769 1879,566 1578,363 1250,220 922,78 556,0 Z"
       transform="scale(0.015625)" /><path
       id="m125ed480b2"
       d="M 0,0 H -3.5"
       style="stroke:#000000;stroke-width:0.8" /><path
       id="LMRoman10-Regular-2e"
       d="M 1229,339 C 1229,525 1075,678 890,678 704,678 550,525 550,339 550,154 704,0 890,0 c 185,0 339,154 339,339 z"
       transform="scale(0.015625)" /><path
       id="LMRoman10-Regular-35"
       d="m 2874,1286 c 0,762 -525,1402 -1216,1402 -308,0 -583,-102 -813,-326 v 1248 c 128,-39 339,-84 544,-84 787,0 1235,583 1235,666 0,38 -19,70 -64,70 0,0 -19,0 -51,-19 -128,-57 -442,-185 -871,-185 -256,0 -550,44 -851,179 -51,19 -77,19 -77,19 -64,0 -64,-51 -64,-154 V 2208 c 0,-115 0,-166 90,-166 45,0 58,19 83,57 71,103 307,448 826,448 333,0 493,-294 544,-409 102,-237 115,-487 115,-807 0,-224 0,-608 -154,-877 C 1997,205 1760,38 1466,38 998,38 634,378 525,755 c 19,-6 38,-13 109,-13 211,0 320,160 320,314 0,154 -109,314 -320,314 -90,0 -314,-45 -314,-340 0,-550 442,-1171 1158,-1171 743,0 1396,615 1396,1427 z"
       transform="scale(0.015625)" /><path
       id="LMRoman10-Regular-33"
       d="m 2925,1094 c 0,525 -403,1024 -1069,1159 525,173 896,621 896,1126 0,525 -563,883 -1178,883 -646,0 -1132,-384 -1132,-870 0,-211 140,-333 326,-333 198,0 326,141 326,327 0,320 -300,320 -396,320 198,313 620,396 851,396 262,0 614,-140 614,-716 0,-77 -13,-448 -179,-730 -192,-307 -410,-326 -570,-333 -51,-6 -204,-19 -249,-19 -51,-6 -96,-13 -96,-77 0,-70 45,-70 153,-70 h 282 c 525,0 762,-435 762,-1063 C 2266,224 1824,38 1542,38 1267,38 787,147 563,525 c 224,-32 423,109 423,352 0,230 -173,358 -359,358 -153,0 -358,-89 -358,-371 0,-582 595,-1005 1293,-1005 780,0 1363,583 1363,1235 z"
       transform="scale(0.015625)" /><path
       id="Cmmi10-46"
       d="m 300,0 q -62,0 -62,84 3,16 12,55 9,39 26,62 18,24 43,24 390,0 544,44 84,28 121,172 l 879,3515 q 12,63 12,88 0,69 -78,78 -119,25 -459,25 -63,0 -63,84 3,16 12,55 10,39 27,62 17,24 42,24 h 3382 q 62,0 62,-84 L 4647,2963 q 0,-19 -22,-38 -22,-19 -44,-19 h -56 q -66,0 -66,82 41,290 41,475 0,318 -138,468 -137,150 -347,183 -209,33 -577,33 h -685 q -175,0 -231,-30 -56,-29 -103,-189 L 2009,2297 h 482 q 237,0 384,25 147,25 244,97 97,72 161,208 64,136 117,361 19,59 66,59 h 56 q 65,0 65,-84 L 3194,1381 q -28,-56 -66,-56 h -56 q -63,0 -63,84 16,66 25,110 10,44 24,126 14,83 14,146 0,184 -163,234 -162,50 -425,50 H 1959 L 1544,416 q -16,-63 -16,-63 0,-75 47,-84 166,-44 653,-44 63,0 63,-84 Q 2269,50 2256,25 2244,0 2181,0 Z"
       transform="scale(0.015625)" /><path
       id="Cmsy10-46"
       d="m 109,288 q 0,112 181,220 182,108 304,120 h 40 q 22,-12 105,-148 83,-136 203,-225 121,-89 339,-89 44,56 75,109 460,850 782,1734 175,482 314,996 139,514 217,989 h -269 q -637,0 -806,-597 -63,-113 -205,-197 -142,-84 -276,-97 h -38 q -44,28 -44,66 97,340 383,615 286,275 664,431 378,157 731,157 h 1875 q 622,0 622,-244 0,-140 -169,-255 -168,-114 -331,-129 h -31 q -47,25 -47,37 3,19 6,41 4,22 4,31 0,141 -532,141 H 3194 Q 3013,3097 2725,2303 h 1616 q 43,-22 43,-56 -40,-153 -190,-261 -150,-108 -316,-123 h -37 q -47,25 -47,50 v 12 H 2584 Q 2303,1206 1919,494 1759,209 1465,-2 1172,-213 878,-213 H 844 Q 594,-213 394,-80 194,53 109,288 Z"
       transform="scale(0.015625)" /><path
       id="Cmmi10-41"
       d="m 288,0 q -63,0 -63,84 25,141 81,141 260,0 449,103 189,103 326,319 13,12 13,12 l 2284,3854 q 50,68 122,68 h 84 q 19,0 38,-8 19,-7 33,-25 14,-17 14,-35 L 4056,378 q 0,-28 28,-84 63,-69 479,-69 65,0 65,-84 Q 4606,56 4592,28 4578,0 4519,0 H 2919 q -60,0 -60,84 35,141 85,141 506,0 537,172 l -97,1056 H 1806 L 1294,594 q -47,-69 -47,-160 0,-112 108,-161 108,-48 239,-48 62,0 62,-84 Q 1634,50 1621,25 1609,0 1550,0 Z m 1643,1678 h 1428 l -190,2072 z"
       transform="scale(0.015625)" /><path
       id="Cmr10-3d"
       d="m 481,850 q -53,0 -88,40 -34,41 -34,88 0,53 34,90 35,38 88,38 h 4019 q 47,0 81,-38 35,-37 35,-90 0,-47 -35,-88 -34,-40 -81,-40 z m 0,1244 q -53,0 -88,37 -34,38 -34,91 0,47 34,87 35,41 88,41 h 4019 q 47,0 81,-41 35,-40 35,-87 0,-53 -35,-91 -34,-37 -81,-37 z"
       transform="scale(0.015625)" /><path
       id="Cmr10-30"
       d="m 1600,-141 q -784,0 -1067,645 -283,646 -283,1537 0,556 101,1046 102,491 403,833 302,343 846,343 422,0 690,-207 269,-206 410,-533 141,-326 192,-700 52,-373 52,-782 0,-550 -102,-1030 -101,-480 -398,-816 -297,-336 -844,-336 z m 0,166 q 356,0 531,365 175,366 216,810 41,444 41,944 0,481 -41,887 -41,407 -215,736 -173,330 -532,330 -362,0 -537,-332 -175,-331 -216,-736 -41,-404 -41,-885 0,-356 17,-672 18,-316 93,-652 75,-336 242,-566 167,-229 442,-229 z"
       transform="scale(0.015625)" /><path
       id="Cmmi10-3a"
       d="m 538,353 q 0,144 106,247 106,103 247,103 87,0 171,-47 85,-47 132,-131 47,-84 47,-172 0,-140 -104,-247 Q 1034,0 891,0 750,0 644,106 538,213 538,353 Z"
       transform="scale(0.015625)" /><path
       id="Cmr10-34"
       d="m 178,1056 v 225 l 1978,2950 q 22,32 66,32 h 94 q 72,0 72,-72 V 1281 h 628 V 1056 H 2388 V 428 q 0,-131 187,-167 188,-36 434,-36 V 0 H 1247 v 225 q 247,0 434,36 188,36 188,167 v 628 z m 213,225 h 1515 v 2266 z"
       transform="scale(0.015625)" /><path
       id="Cmr10-37"
       d="m 1113,166 q 0,356 62,696 63,341 183,674 120,333 290,653 171,320 374,602 l 584,812 H 1875 Q 738,3603 703,3572 619,3469 544,2981 H 359 l 210,1344 h 187 v -19 q 0,-115 391,-150 391,-34 766,-34 h 1190 v -166 q 0,-6 -2,-9 -1,-3 -4,-9 L 2216,2700 q -325,-481 -407,-1069 -81,-587 -81,-1465 0,-125 -91,-216 -90,-91 -215,-91 -128,0 -219,91 -90,91 -90,216 z"
       transform="scale(0.015625)" /><path
       id="Cmmi10-be"
       d="M 1197,-72 Q 913,-72 692,64 472,200 351,431 231,663 231,941 q 0,297 134,625 135,328 368,600 233,272 526,432 294,161 604,161 h 1612 q 66,0 112,-44 47,-43 47,-118 0,-94 -67,-164 -67,-70 -161,-70 h -781 q 184,-275 184,-666 0,-322 -125,-635 Q 2559,750 2337,492 2116,234 1820,81 1525,-72 1197,-72 Z m 6,169 q 350,0 620,273 271,274 414,669 144,395 144,733 0,275 -152,433 -151,158 -423,158 -372,0 -633,-250 Q 913,1863 783,1484 653,1106 653,756 653,481 798,289 944,97 1203,97 Z"
       transform="scale(0.015625)" /><path
       id="Cmr10-3b"
       d="m 634,-1153 q 0,28 13,40 447,485 447,1138 V 56 Q 1000,0 891,0 744,0 641,103 538,206 538,353 q 0,150 103,250 103,100 250,100 222,0 295,-205 73,-204 73,-473 0,-225 -55,-444 -54,-219 -165,-428 -111,-209 -264,-375 -19,-19 -47,-19 -31,0 -63,29 -31,28 -31,59 z m -96,3559 q 0,91 46,172 47,81 130,131 83,50 177,50 90,0 173,-50 83,-50 130,-131 47,-81 47,-172 0,-143 -102,-248 -101,-105 -248,-105 -144,0 -249,105 -104,105 -104,248 z"
       transform="scale(0.015625)" /><path
       id="Cmmi10-66"
       d="m 622,-1056 q 119,-91 287,-91 229,0 372,506 60,244 325,1607 l 294,1568 h -550 q -62,0 -62,85 25,140 81,140 h 572 l 75,416 q 37,194 68,333 32,139 68,257 36,119 107,266 110,210 296,346 186,136 401,136 141,0 274,-52 133,-52 217,-155 84,-103 84,-243 0,-163 -108,-284 -107,-120 -260,-120 -104,0 -177,64 -73,65 -73,168 0,140 95,245 95,105 236,120 -119,91 -294,91 -97,0 -183,-91 -86,-90 -111,-193 -40,-163 -178,-882 l -78,-422 h 659 q 63,0 63,-84 -3,-16 -13,-55 -9,-39 -26,-63 -17,-23 -42,-23 H 2356 L 2059,972 q -56,-341 -130,-693 -73,-351 -206,-721 -132,-371 -339,-621 -206,-250 -487,-250 -216,0 -386,124 -170,123 -170,326 0,163 104,284 105,120 264,120 107,0 178,-64 72,-65 72,-168 0,-137 -102,-251 -101,-114 -235,-114 z"
       transform="scale(0.015625)" /><path
       id="Cmr10-32"
       d="m 319,0 v 172 q 0,16 12,34 l 994,1100 q 225,244 365,409 141,166 278,382 138,216 218,439 80,223 80,473 0,263 -97,502 -97,239 -289,383 -192,144 -464,144 -278,0 -500,-168 -222,-167 -313,-432 25,6 69,6 144,0 245,-97 102,-97 102,-250 0,-147 -102,-249 -101,-101 -245,-101 -150,0 -252,104 -101,105 -101,246 0,241 90,451 91,211 261,375 171,165 385,252 214,88 454,88 366,0 681,-155 316,-155 500,-438 185,-282 185,-661 0,-278 -122,-528 -122,-250 -313,-455 -190,-204 -487,-464 -297,-259 -390,-346 L 838,519 h 615 q 453,0 758,7 305,8 323,24 75,81 154,591 h 187 L 2694,0 Z"
       transform="scale(0.015625)" /><path
       id="LMRoman10-Regular-44"
       d="m 4525,2150 c 0,1216 -864,2221 -1959,2221 H 224 v -198 h 154 c 492,0 505,-71 505,-301 V 499 C 883,269 870,198 378,198 H 224 V 0 h 2342 c 1076,0 1959,947 1959,2150 z m -640,0 C 3885,1440 3763,1056 3533,742 3405,570 3040,198 2394,198 h -647 c -301,0 -313,45 -313,256 v 3463 c 0,211 12,256 313,256 h 640 c 397,0 839,-141 1165,-595 275,-378 333,-928 333,-1428 z"
       transform="scale(0.015625)" /><path
       id="LMRoman10-Regular-69"
       d="m 1581,0 v 198 c -423,0 -448,32 -448,282 v 2349 l -896,-71 v -198 c 416,0 473,-38 473,-352 V 486 C 710,198 640,198 211,198 V 0 l 704,19 c 224,0 448,-13 666,-19 z m -352,3866 c 0,172 -147,339 -339,339 -218,0 -346,-179 -346,-339 0,-173 147,-340 339,-340 218,0 346,180 346,340 z"
       transform="scale(0.015625)" /><path
       id="LMRoman10-Regular-72"
       d="m 2330,2438 c 0,205 -199,391 -474,391 -467,0 -698,-429 -787,-704 v 704 l -890,-71 v -198 c 448,0 499,-45 499,-358 V 486 C 678,198 608,198 179,198 V 0 l 730,19 c 256,0 557,0 813,-19 v 198 h -135 c -473,0 -486,71 -486,301 v 986 c 0,633 269,1203 755,1203 45,0 58,0 70,-6 -19,-7 -147,-84 -147,-250 0,-179 135,-275 275,-275 116,0 276,77 276,281 z"
       transform="scale(0.015625)" /><path
       id="LMRoman10-Regular-65"
       d="m 2656,762 c 0,64 -51,76 -83,76 -58,0 -71,-38 -83,-89 C 2266,90 1690,90 1626,90 1306,90 1050,282 902,518 710,826 710,1248 710,1478 h 1786 c 141,0 160,0 160,135 0,633 -346,1254 -1146,1254 C 768,2867 179,2208 179,1408 179,550 851,-70 1587,-70 c 781,0 1069,710 1069,832 z m -422,851 H 717 c 38,953 576,1113 793,1113 660,0 724,-864 724,-1113 z"
       transform="scale(0.015625)" /><path
       id="LMRoman10-Regular-63"
       d="m 2656,762 c 0,64 -64,64 -83,64 -58,0 -71,-26 -83,-64 C 2304,166 1888,90 1651,90 1312,90 749,365 749,1395 c 0,1043 525,1312 864,1312 57,0 461,-6 685,-237 -263,-19 -301,-211 -301,-294 0,-166 115,-294 294,-294 167,0 295,108 295,300 0,436 -487,685 -980,685 C 806,2867 218,2176 218,1382 218,563 851,-70 1594,-70 c 857,0 1062,768 1062,832 z"
       transform="scale(0.015625)" /><path
       id="LMRoman10-Regular-74"
       d="m 2125,794 v 364 H 1965 V 806 C 1965,333 1773,90 1536,90 1107,90 1107,672 1107,781 v 1779 h 915 v 198 H 1107 V 3936 H 947 C 941,3411 749,2726 122,2701 V 2560 H 666 V 794 c 0,-788 595,-864 825,-864 455,0 634,454 634,864 z"
       transform="scale(0.015625)" /><path
       id="LMRoman10-Regular-20"
       transform="scale(0.015625)"
       d="" /><path
       id="LMRoman10-Regular-6d"
       d="m 5203,0 v 198 c -333,0 -493,0 -499,192 v 1223 c 0,550 0,749 -198,979 -90,109 -301,237 -672,237 -538,0 -820,-384 -928,-627 -90,556 -564,627 -852,627 -467,0 -768,-275 -947,-672 v 672 l -902,-71 v -198 c 448,0 499,-45 499,-358 V 486 C 704,198 634,198 205,198 V 0 L 928,19 1645,0 v 198 c -429,0 -499,0 -499,288 v 1178 c 0,666 454,1024 864,1024 403,0 473,-346 473,-710 V 486 c 0,-288 -70,-288 -499,-288 V 0 l 723,19 717,-19 v 198 c -429,0 -499,0 -499,288 v 1178 c 0,666 454,1024 864,1024 403,0 473,-346 473,-710 V 486 c 0,-288 -70,-288 -499,-288 V 0 l 723,19 z"
       transform="scale(0.015625)" /><path
       id="LMRoman10-Regular-61"
       d="M 3091,570 V 928 H 2931 V 570 c 0,-372 -160,-410 -230,-410 -211,0 -237,288 -237,320 v 1280 c 0,269 0,518 -230,755 -250,250 -570,352 -877,352 -525,0 -967,-301 -967,-723 0,-192 128,-301 295,-301 179,0 294,128 294,295 0,76 -32,288 -326,294 173,224 486,294 691,294 314,0 678,-249 678,-819 V 1670 C 1696,1651 1248,1632 845,1440 365,1222 205,890 205,608 205,90 826,-70 1229,-70 c 422,0 717,256 838,556 26,-256 199,-524 499,-524 135,0 525,89 525,608 z M 2022,896 C 2022,288 1562,70 1274,70 960,70 698,294 698,614 c 0,352 268,884 1324,922 z"
       transform="scale(0.015625)" /><path
       id="LMRoman10-Regular-67"
       d="m 3104,2586 c 0,108 -77,313 -326,313 -128,0 -410,-38 -679,-301 -269,212 -537,231 -678,231 C 826,2829 384,2387 384,1894 384,1613 525,1370 685,1235 602,1139 486,928 486,704 486,506 570,262 768,134 384,26 179,-250 179,-506 c 0,-460 634,-812 1415,-812 755,0 1420,326 1420,825 0,224 -89,551 -416,730 -339,179 -710,179 -1100,179 -160,0 -436,0 -480,6 -205,26 -340,224 -340,429 0,26 0,173 109,301 250,-179 512,-198 634,-198 595,0 1037,441 1037,934 0,237 -103,474 -263,621 231,217 461,249 576,249 0,0 45,0 64,-6 -70,-26 -102,-96 -102,-173 0,-109 83,-185 185,-185 64,0 186,44 186,192 z M 1978,1894 c 0,-172 -7,-377 -103,-537 -51,-77 -198,-256 -454,-256 -557,0 -557,640 -557,787 0,173 6,378 102,538 52,76 199,256 455,256 557,0 557,-640 557,-788 z m 704,-2400 c 0,-345 -455,-665 -1082,-665 -646,0 -1088,326 -1088,665 0,295 243,532 525,551 h 377 c 551,0 1268,0 1268,-551 z"
       transform="scale(0.015625)" /><path
       id="LMRoman10-Regular-6e"
       d="m 3424,0 v 198 c -333,0 -493,0 -499,192 v 1223 c 0,550 0,749 -199,979 -89,109 -300,237 -672,237 -467,0 -768,-275 -947,-672 v 672 l -902,-71 v -198 c 448,0 499,-45 499,-358 V 486 C 704,198 634,198 205,198 V 0 L 928,19 1645,0 v 198 c -429,0 -499,0 -499,288 v 1178 c 0,666 454,1024 864,1024 403,0 473,-346 473,-710 V 486 c 0,-288 -70,-288 -499,-288 V 0 l 723,19 z"
       transform="scale(0.015625)" /><path
       id="LMRoman10-Regular-50"
       d="m 3994,3181 c 0,627 -634,1190 -1511,1190 H 224 v -198 h 154 c 492,0 505,-71 505,-301 V 499 C 883,269 870,198 378,198 H 224 V 0 c 224,19 698,19 941,19 243,0 723,0 947,-19 v 198 h -154 c -492,0 -505,71 -505,301 v 1523 h 1081 c 768,0 1460,519 1460,1159 z m -660,0 c 0,-301 0,-992 -1017,-992 h -883 v 1728 c 0,211 12,256 313,256 h 570 c 1017,0 1017,-679 1017,-992 z"
       transform="scale(0.015625)" /><path
       id="LMRoman10-Regular-4d"
       d="m 5626,0 v 198 h -154 c -493,0 -506,71 -506,301 v 3373 c 0,230 13,301 506,301 h 154 v 198 H 4544 c -166,0 -166,-6 -211,-121 L 2931,646 1542,4230 c -57,141 -76,141 -224,141 H 237 v -198 h 153 c 493,0 506,-71 506,-301 V 672 C 896,499 896,198 237,198 V 0 L 986,19 1734,0 v 198 c -659,0 -659,301 -659,474 v 3450 h 7 L 2624,141 c 32,-83 64,-141 128,-141 70,0 90,51 115,122 l 1575,4051 h 6 V 499 c 0,-230 -13,-301 -506,-301 H 3789 V 0 c 237,19 672,19 921,19 250,0 679,0 916,-19 z"
       transform="scale(0.015625)" /><path
       id="LMRoman10-Regular-2d"
       d="m 1766,1197 v 371 H 70 v -371 z"
       transform="scale(0.015625)" /><path
       id="LMRoman10-Regular-53"
       d="m 3194,1190 c 0,640 -423,1165 -960,1293 l -820,199 c -396,96 -646,441 -646,812 0,448 346,839 845,839 1069,0 1209,-1050 1248,-1338 6,-38 6,-77 77,-77 83,0 83,32 83,154 v 1286 c 0,109 0,154 -71,154 -44,0 -51,-6 -96,-83 l -224,-365 c -192,186 -454,448 -1024,448 -710,0 -1248,-563 -1248,-1242 0,-531 340,-998 839,-1171 70,-25 397,-102 845,-211 172,-45 364,-90 544,-326 134,-167 198,-378 198,-589 0,-455 -320,-915 -858,-915 -185,0 -672,32 -1011,345 -371,346 -390,755 -397,986 -6,64 -57,64 -76,64 -84,0 -84,-45 -84,-160 V 13 c 0,-109 0,-154 71,-154 45,0 51,13 96,83 0,0 19,26 230,365 199,-217 608,-448 1178,-448 749,0 1261,627 1261,1331 z"
       transform="scale(0.015625)" /><path
       id="LMRoman10-Regular-41"
       d="m 4589,0 v 198 h -115 c -384,0 -474,45 -544,256 L 2547,4454 c -32,84 -45,128 -147,128 -102,0 -122,-38 -154,-128 L 922,627 C 806,301 550,205 205,198 V 0 L 858,19 1594,0 v 198 c -320,0 -480,160 -480,327 0,19 6,83 12,96 l 295,838 h 1581 l 339,-979 c 6,-26 19,-64 19,-90 0,-192 -358,-192 -531,-192 V 0 c 230,19 678,19 921,19 z M 2931,1658 H 1491 l 717,2080 z"
       transform="scale(0.015625)" /><path
       id="LMRoman10-Regular-45"
       d="M 4173,1651 H 4013 C 3853,666 3706,198 2605,198 h -851 c -301,0 -314,45 -314,256 v 1709 h 576 c 621,0 691,-205 691,-749 h 160 v 1696 h -160 c 0,-550 -70,-748 -691,-748 h -576 v 1536 c 0,211 13,256 314,256 h 825 c 979,0 1152,-352 1255,-1242 h 160 L 3814,4352 H 211 v -198 h 154 c 493,0 505,-71 505,-301 V 499 C 870,269 858,198 365,198 H 211 V 0 h 3693 z"
       transform="scale(0.015625)" /><path
       id="LMRoman10-Regular-48"
       d="m 4582,0 v 198 h -153 c -493,0 -506,71 -506,301 v 3373 c 0,230 13,301 506,301 h 153 v 198 c -224,-19 -697,-19 -940,-19 -244,0 -724,0 -948,19 v -198 h 154 c 493,0 506,-71 506,-301 V 2374 H 1440 v 1498 c 0,230 13,301 506,301 h 153 v 198 c -224,-19 -697,-19 -941,-19 -243,0 -723,0 -947,19 v -198 h 154 c 493,0 505,-71 505,-301 V 499 C 870,269 858,198 365,198 H 211 V 0 c 224,19 698,19 941,19 243,0 723,0 947,-19 v 198 h -153 c -493,0 -506,71 -506,301 V 2176 H 3354 V 499 c 0,-230 -13,-301 -506,-301 H 2694 V 0 c 224,19 698,19 941,19 243,0 723,0 947,-19 z"
       transform="scale(0.015625)" /><path
       id="LMRoman10-Regular-47"
       d="m 4704,1549 v 198 l -781,-19 c -256,0 -800,0 -1030,19 v -198 h 205 c 576,0 595,-71 595,-307 V 832 C 3693,115 2880,58 2701,58 2285,58 1018,282 1018,2189 c 0,1913 1260,2125 1644,2125 685,0 1268,-576 1396,-1517 12,-90 12,-109 102,-109 102,0 102,19 102,154 v 1516 c 0,109 0,154 -70,154 -26,0 -51,0 -102,-77 L 3770,3962 C 3565,4166 3219,4512 2586,4512 1395,4512 358,3501 358,2189 358,877 1382,-141 2598,-141 c 468,0 980,167 1197,544 83,-141 339,-397 410,-397 57,0 57,52 57,148 v 1113 c 0,250 26,282 442,282 z"
       transform="scale(0.015625)" /><clipPath
       id="pdec4c0d0db"><rect
         x="50.02375"
         y="20.112"
         width="184.14"
         height="138.60001"
         id="rect132" /></clipPath><style
       type="text/css"
       id="style1-4">*{stroke-linejoin: round; stroke-linecap: butt}</style><path
       id="m23bd8aeeb6"
       d="M 0,0 V 3.5"
       style="stroke:#000000;stroke-width:0.8" /><path
       id="LMRoman10-Regular-30-4"
       d="m 2944,2048 c 0,512 -32,1024 -256,1498 -294,614 -819,716 -1088,716 C 1216,4262 749,4096 486,3501 282,3059 250,2560 250,2048 250,1568 275,992 538,506 c 275,-519 742,-647 1056,-647 345,0 832,135 1113,743 205,441 237,940 237,1446 z m -531,77 c 0,-480 0,-915 -71,-1325 C 2246,192 1882,0 1594,0 1344,0 966,160 851,774 c -70,384 -70,973 -70,1351 0,409 0,832 51,1177 122,762 602,820 762,820 211,0 633,-116 755,-749 64,-359 64,-845 64,-1248 z"
       transform="scale(0.015625)" /><path
       id="LMRoman10-Regular-2e-2"
       d="M 1229,339 C 1229,525 1075,678 890,678 704,678 550,525 550,339 550,154 704,0 890,0 c 185,0 339,154 339,339 z"
       transform="scale(0.015625)" /><path
       id="LMRoman10-Regular-32-6"
       d="M 2874,1114 H 2714 C 2682,922 2637,640 2573,544 2528,493 2106,493 1965,493 H 813 l 678,659 c 999,883 1383,1229 1383,1869 0,729 -576,1241 -1357,1241 -723,0 -1197,-588 -1197,-1158 0,-358 320,-358 339,-358 109,0 333,76 333,339 0,166 -115,333 -339,333 -51,0 -64,0 -83,-7 147,416 492,653 864,653 582,0 857,-518 857,-1043 0,-512 -320,-1018 -672,-1415 L 390,237 C 320,166 320,154 320,0 h 2374 z"
       transform="scale(0.015625)" /><path
       id="LMRoman10-Regular-34-3"
       d="m 3014,1056 v 198 h -640 v 2912 c 0,128 0,167 -102,167 -58,0 -77,0 -128,-77 L 179,1254 V 1056 H 1882 V 499 c 0,-230 -13,-301 -487,-301 H 1261 V 0 c 262,19 595,19 864,19 269,0 608,0 870,-19 v 198 h -134 c -474,0 -487,71 -487,301 v 557 z M 1920,1254 H 358 l 1562,2388 z"
       transform="scale(0.015625)" /><path
       id="LMRoman10-Regular-36-7"
       d="m 2925,1306 c 0,812 -570,1427 -1280,1427 -435,0 -672,-327 -800,-634 v 154 c 0,1619 793,1849 1120,1849 153,0 422,-38 563,-256 -96,0 -352,0 -352,-288 0,-198 154,-294 294,-294 103,0 295,58 295,307 0,384 -282,691 -813,691 -819,0 -1683,-825 -1683,-2240 0,-1708 742,-2163 1337,-2163 711,0 1319,602 1319,1447 z m -576,6 c 0,-307 0,-627 -109,-858 C 2048,70 1754,38 1606,38 1203,38 1011,422 973,518 858,819 858,1331 858,1446 c 0,500 204,1140 780,1140 103,0 397,0 596,-397 115,-237 115,-563 115,-877 z"
       transform="scale(0.015625)" /><path
       id="LMRoman10-Regular-38-0"
       d="m 2925,1075 c 0,231 -71,519 -314,787 -121,135 -224,199 -633,455 460,237 774,569 774,992 0,589 -570,953 -1152,953 -640,0 -1158,-473 -1158,-1068 0,-116 12,-404 281,-704 71,-77 307,-237 467,-346 C 819,1958 269,1600 269,966 269,288 922,-141 1594,-141 c 723,0 1331,531 1331,1216 z m -455,2234 c 0,-365 -249,-672 -633,-896 l -794,512 c -294,192 -320,409 -320,518 0,391 416,659 871,659 467,0 876,-332 876,-793 z M 2605,845 C 2605,371 2125,38 1600,38 1050,38 589,435 589,966 c 0,372 205,781 749,1082 l 787,-499 c 179,-122 480,-314 480,-704 z"
       transform="scale(0.015625)" /><path
       id="LMRoman10-Regular-31-6"
       d="m 2682,0 v 198 h -205 c -576,0 -595,71 -595,308 v 3590 c 0,154 0,166 -148,166 C 1338,3853 774,3853 570,3853 v -199 c 128,0 505,0 838,167 V 506 C 1408,275 1389,198 813,198 H 608 V 0 c 224,19 781,19 1037,19 256,0 813,0 1037,-19 z"
       transform="scale(0.015625)" /><path
       id="Cmmi10-62-6"
       d="m 1106,-72 q -387,0 -603,303 -215,303 -215,710 0,59 29,232 30,174 30,215 l 619,2484 q 25,109 31,172 0,103 -416,103 -62,0 -62,84 3,16 14,56 11,41 28,63 17,22 48,22 l 863,69 q 78,0 78,-82 L 1075,2472 q 363,356 731,356 272,0 467,-144 196,-143 293,-378 97,-234 97,-500 0,-309 -121,-639 Q 2422,838 2209,555 1997,272 1712,100 1428,-72 1106,-72 Z m 13,169 q 219,0 409,183 191,183 310,411 128,256 239,695 111,439 111,702 0,228 -96,401 -95,174 -301,174 -232,0 -443,-171 -210,-170 -370,-404 L 800,1363 Q 697,959 691,716 691,475 795,286 900,97 1119,97 Z"
       transform="scale(0.015625)" /><path
       id="Cmmi10-3d-1"
       d="m 359,-1472 q 0,19 7,25 l 2225,6169 q 12,37 43,57 32,21 72,21 57,0 92,-35 36,-34 36,-93 v -25 L 609,-1522 q -37,-78 -121,-78 -54,0 -92,38 -37,37 -37,90 z"
       transform="scale(0.015625)" /><path
       id="Cmmi10-ba-3"
       d="m 403,0 q -78,0 -78,84 l 547,2175 q 25,110 31,172 0,103 -415,103 -66,0 -66,85 3,15 14,56 11,41 28,62 17,22 49,22 l 862,69 q 78,0 78,-81 L 825,238 q 506,168 932,527 427,360 722,847 296,488 427,1013 25,91 100,147 75,56 169,56 84,0 137,-50 54,-50 54,-134 0,-103 -85,-314 -84,-211 -165,-377 Q 2863,1450 2444,1031 2181,769 1879,566 1578,363 1250,220 922,78 556,0 Z"
       transform="scale(0.015625)" /><path
       id="m82e1198068"
       d="M 0,0 H -3.5"
       style="stroke:#000000;stroke-width:0.8" /><path
       id="Cmmi10-46-0"
       d="m 300,0 q -62,0 -62,84 3,16 12,55 9,39 26,62 18,24 43,24 390,0 544,44 84,28 121,172 l 879,3515 q 12,63 12,88 0,69 -78,78 -119,25 -459,25 -63,0 -63,84 3,16 12,55 10,39 27,62 17,24 42,24 h 3382 q 62,0 62,-84 L 4647,2963 q 0,-19 -22,-38 -22,-19 -44,-19 h -56 q -66,0 -66,82 41,290 41,475 0,318 -138,468 -137,150 -347,183 -209,33 -577,33 h -685 q -175,0 -231,-30 -56,-29 -103,-189 L 2009,2297 h 482 q 237,0 384,25 147,25 244,97 97,72 161,208 64,136 117,361 19,59 66,59 h 56 q 65,0 65,-84 L 3194,1381 q -28,-56 -66,-56 h -56 q -63,0 -63,84 16,66 25,110 10,44 24,126 14,83 14,146 0,184 -163,234 -162,50 -425,50 H 1959 L 1544,416 q -16,-63 -16,-63 0,-75 47,-84 166,-44 653,-44 63,0 63,-84 Q 2269,50 2256,25 2244,0 2181,0 Z"
       transform="scale(0.015625)" /><path
       id="Cmsy10-46-1"
       d="m 109,288 q 0,112 181,220 182,108 304,120 h 40 q 22,-12 105,-148 83,-136 203,-225 121,-89 339,-89 44,56 75,109 460,850 782,1734 175,482 314,996 139,514 217,989 h -269 q -637,0 -806,-597 -63,-113 -205,-197 -142,-84 -276,-97 h -38 q -44,28 -44,66 97,340 383,615 286,275 664,431 378,157 731,157 h 1875 q 622,0 622,-244 0,-140 -169,-255 -168,-114 -331,-129 h -31 q -47,25 -47,37 3,19 6,41 4,22 4,31 0,141 -532,141 H 3194 Q 3013,3097 2725,2303 h 1616 q 43,-22 43,-56 -40,-153 -190,-261 -150,-108 -316,-123 h -37 q -47,25 -47,50 v 12 H 2584 Q 2303,1206 1919,494 1759,209 1465,-2 1172,-213 878,-213 H 844 Q 594,-213 394,-80 194,53 109,288 Z"
       transform="scale(0.015625)" /><path
       id="Cmmi10-41-5"
       d="m 288,0 q -63,0 -63,84 25,141 81,141 260,0 449,103 189,103 326,319 13,12 13,12 l 2284,3854 q 50,68 122,68 h 84 q 19,0 38,-8 19,-7 33,-25 14,-17 14,-35 L 4056,378 q 0,-28 28,-84 63,-69 479,-69 65,0 65,-84 Q 4606,56 4592,28 4578,0 4519,0 H 2919 q -60,0 -60,84 35,141 85,141 506,0 537,172 l -97,1056 H 1806 L 1294,594 q -47,-69 -47,-160 0,-112 108,-161 108,-48 239,-48 62,0 62,-84 Q 1634,50 1621,25 1609,0 1550,0 Z m 1643,1678 h 1428 l -190,2072 z"
       transform="scale(0.015625)" /><path
       id="Cmr10-3d-9"
       d="m 481,850 q -53,0 -88,40 -34,41 -34,88 0,53 34,90 35,38 88,38 h 4019 q 47,0 81,-38 35,-37 35,-90 0,-47 -35,-88 -34,-40 -81,-40 z m 0,1244 q -53,0 -88,37 -34,38 -34,91 0,47 34,87 35,41 88,41 h 4019 q 47,0 81,-41 35,-40 35,-87 0,-53 -35,-91 -34,-37 -81,-37 z"
       transform="scale(0.015625)" /><path
       id="Cmr10-30-9"
       d="m 1600,-141 q -784,0 -1067,645 -283,646 -283,1537 0,556 101,1046 102,491 403,833 302,343 846,343 422,0 690,-207 269,-206 410,-533 141,-326 192,-700 52,-373 52,-782 0,-550 -102,-1030 -101,-480 -398,-816 -297,-336 -844,-336 z m 0,166 q 356,0 531,365 175,366 216,810 41,444 41,944 0,481 -41,887 -41,407 -215,736 -173,330 -532,330 -362,0 -537,-332 -175,-331 -216,-736 -41,-404 -41,-885 0,-356 17,-672 18,-316 93,-652 75,-336 242,-566 167,-229 442,-229 z"
       transform="scale(0.015625)" /><path
       id="Cmmi10-3a-8"
       d="m 538,353 q 0,144 106,247 106,103 247,103 87,0 171,-47 85,-47 132,-131 47,-84 47,-172 0,-140 -104,-247 Q 1034,0 891,0 750,0 644,106 538,213 538,353 Z"
       transform="scale(0.015625)" /><path
       id="Cmr10-34-1"
       d="m 178,1056 v 225 l 1978,2950 q 22,32 66,32 h 94 q 72,0 72,-72 V 1281 h 628 V 1056 H 2388 V 428 q 0,-131 187,-167 188,-36 434,-36 V 0 H 1247 v 225 q 247,0 434,36 188,36 188,167 v 628 z m 213,225 h 1515 v 2266 z"
       transform="scale(0.015625)" /><path
       id="Cmr10-37-8"
       d="m 1113,166 q 0,356 62,696 63,341 183,674 120,333 290,653 171,320 374,602 l 584,812 H 1875 Q 738,3603 703,3572 619,3469 544,2981 H 359 l 210,1344 h 187 v -19 q 0,-115 391,-150 391,-34 766,-34 h 1190 v -166 q 0,-6 -2,-9 -1,-3 -4,-9 L 2216,2700 q -325,-481 -407,-1069 -81,-587 -81,-1465 0,-125 -91,-216 -90,-91 -215,-91 -128,0 -219,91 -90,91 -90,216 z"
       transform="scale(0.015625)" /><path
       id="Cmmi10-be-2"
       d="M 1197,-72 Q 913,-72 692,64 472,200 351,431 231,663 231,941 q 0,297 134,625 135,328 368,600 233,272 526,432 294,161 604,161 h 1612 q 66,0 112,-44 47,-43 47,-118 0,-94 -67,-164 -67,-70 -161,-70 h -781 q 184,-275 184,-666 0,-322 -125,-635 Q 2559,750 2337,492 2116,234 1820,81 1525,-72 1197,-72 Z m 6,169 q 350,0 620,273 271,274 414,669 144,395 144,733 0,275 -152,433 -151,158 -423,158 -372,0 -633,-250 Q 913,1863 783,1484 653,1106 653,756 653,481 798,289 944,97 1203,97 Z"
       transform="scale(0.015625)" /><path
       id="Cmr10-3b-6"
       d="m 634,-1153 q 0,28 13,40 447,485 447,1138 V 56 Q 1000,0 891,0 744,0 641,103 538,206 538,353 q 0,150 103,250 103,100 250,100 222,0 295,-205 73,-204 73,-473 0,-225 -55,-444 -54,-219 -165,-428 -111,-209 -264,-375 -19,-19 -47,-19 -31,0 -63,29 -31,28 -31,59 z m -96,3559 q 0,91 46,172 47,81 130,131 83,50 177,50 90,0 173,-50 83,-50 130,-131 47,-81 47,-172 0,-143 -102,-248 -101,-105 -248,-105 -144,0 -249,105 -104,105 -104,248 z"
       transform="scale(0.015625)" /><path
       id="Cmmi10-66-6"
       d="m 622,-1056 q 119,-91 287,-91 229,0 372,506 60,244 325,1607 l 294,1568 h -550 q -62,0 -62,85 25,140 81,140 h 572 l 75,416 q 37,194 68,333 32,139 68,257 36,119 107,266 110,210 296,346 186,136 401,136 141,0 274,-52 133,-52 217,-155 84,-103 84,-243 0,-163 -108,-284 -107,-120 -260,-120 -104,0 -177,64 -73,65 -73,168 0,140 95,245 95,105 236,120 -119,91 -294,91 -97,0 -183,-91 -86,-90 -111,-193 -40,-163 -178,-882 l -78,-422 h 659 q 63,0 63,-84 -3,-16 -13,-55 -9,-39 -26,-63 -17,-23 -42,-23 H 2356 L 2059,972 q -56,-341 -130,-693 -73,-351 -206,-721 -132,-371 -339,-621 -206,-250 -487,-250 -216,0 -386,124 -170,123 -170,326 0,163 104,284 105,120 264,120 107,0 178,-64 72,-65 72,-168 0,-137 -102,-251 -101,-114 -235,-114 z"
       transform="scale(0.015625)" /><path
       id="Cmr10-32-0"
       d="m 319,0 v 172 q 0,16 12,34 l 994,1100 q 225,244 365,409 141,166 278,382 138,216 218,439 80,223 80,473 0,263 -97,502 -97,239 -289,383 -192,144 -464,144 -278,0 -500,-168 -222,-167 -313,-432 25,6 69,6 144,0 245,-97 102,-97 102,-250 0,-147 -102,-249 -101,-101 -245,-101 -150,0 -252,104 -101,105 -101,246 0,241 90,451 91,211 261,375 171,165 385,252 214,88 454,88 366,0 681,-155 316,-155 500,-438 185,-282 185,-661 0,-278 -122,-528 -122,-250 -313,-455 -190,-204 -487,-464 -297,-259 -390,-346 L 838,519 h 615 q 453,0 758,7 305,8 323,24 75,81 154,591 h 187 L 2694,0 Z"
       transform="scale(0.015625)" /><path
       id="LMRoman10-Regular-44-1"
       d="m 4525,2150 c 0,1216 -864,2221 -1959,2221 H 224 v -198 h 154 c 492,0 505,-71 505,-301 V 499 C 883,269 870,198 378,198 H 224 V 0 h 2342 c 1076,0 1959,947 1959,2150 z m -640,0 C 3885,1440 3763,1056 3533,742 3405,570 3040,198 2394,198 h -647 c -301,0 -313,45 -313,256 v 3463 c 0,211 12,256 313,256 h 640 c 397,0 839,-141 1165,-595 275,-378 333,-928 333,-1428 z"
       transform="scale(0.015625)" /><path
       id="LMRoman10-Regular-69-6"
       d="m 1581,0 v 198 c -423,0 -448,32 -448,282 v 2349 l -896,-71 v -198 c 416,0 473,-38 473,-352 V 486 C 710,198 640,198 211,198 V 0 l 704,19 c 224,0 448,-13 666,-19 z m -352,3866 c 0,172 -147,339 -339,339 -218,0 -346,-179 -346,-339 0,-173 147,-340 339,-340 218,0 346,180 346,340 z"
       transform="scale(0.015625)" /><path
       id="LMRoman10-Regular-72-4"
       d="m 2330,2438 c 0,205 -199,391 -474,391 -467,0 -698,-429 -787,-704 v 704 l -890,-71 v -198 c 448,0 499,-45 499,-358 V 486 C 678,198 608,198 179,198 V 0 l 730,19 c 256,0 557,0 813,-19 v 198 h -135 c -473,0 -486,71 -486,301 v 986 c 0,633 269,1203 755,1203 45,0 58,0 70,-6 -19,-7 -147,-84 -147,-250 0,-179 135,-275 275,-275 116,0 276,77 276,281 z"
       transform="scale(0.015625)" /><path
       id="LMRoman10-Regular-65-0"
       d="m 2656,762 c 0,64 -51,76 -83,76 -58,0 -71,-38 -83,-89 C 2266,90 1690,90 1626,90 1306,90 1050,282 902,518 710,826 710,1248 710,1478 h 1786 c 141,0 160,0 160,135 0,633 -346,1254 -1146,1254 C 768,2867 179,2208 179,1408 179,550 851,-70 1587,-70 c 781,0 1069,710 1069,832 z m -422,851 H 717 c 38,953 576,1113 793,1113 660,0 724,-864 724,-1113 z"
       transform="scale(0.015625)" /><path
       id="LMRoman10-Regular-63-6"
       d="m 2656,762 c 0,64 -64,64 -83,64 -58,0 -71,-26 -83,-64 C 2304,166 1888,90 1651,90 1312,90 749,365 749,1395 c 0,1043 525,1312 864,1312 57,0 461,-6 685,-237 -263,-19 -301,-211 -301,-294 0,-166 115,-294 294,-294 167,0 295,108 295,300 0,436 -487,685 -980,685 C 806,2867 218,2176 218,1382 218,563 851,-70 1594,-70 c 857,0 1062,768 1062,832 z"
       transform="scale(0.015625)" /><path
       id="LMRoman10-Regular-74-1"
       d="m 2125,794 v 364 H 1965 V 806 C 1965,333 1773,90 1536,90 1107,90 1107,672 1107,781 v 1779 h 915 v 198 H 1107 V 3936 H 947 C 941,3411 749,2726 122,2701 V 2560 H 666 V 794 c 0,-788 595,-864 825,-864 455,0 634,454 634,864 z"
       transform="scale(0.015625)" /><path
       id="LMRoman10-Regular-20-8"
       transform="scale(0.015625)"
       d="" /><path
       id="LMRoman10-Regular-6d-9"
       d="m 5203,0 v 198 c -333,0 -493,0 -499,192 v 1223 c 0,550 0,749 -198,979 -90,109 -301,237 -672,237 -538,0 -820,-384 -928,-627 -90,556 -564,627 -852,627 -467,0 -768,-275 -947,-672 v 672 l -902,-71 v -198 c 448,0 499,-45 499,-358 V 486 C 704,198 634,198 205,198 V 0 L 928,19 1645,0 v 198 c -429,0 -499,0 -499,288 v 1178 c 0,666 454,1024 864,1024 403,0 473,-346 473,-710 V 486 c 0,-288 -70,-288 -499,-288 V 0 l 723,19 717,-19 v 198 c -429,0 -499,0 -499,288 v 1178 c 0,666 454,1024 864,1024 403,0 473,-346 473,-710 V 486 c 0,-288 -70,-288 -499,-288 V 0 l 723,19 z"
       transform="scale(0.015625)" /><path
       id="LMRoman10-Regular-61-8"
       d="M 3091,570 V 928 H 2931 V 570 c 0,-372 -160,-410 -230,-410 -211,0 -237,288 -237,320 v 1280 c 0,269 0,518 -230,755 -250,250 -570,352 -877,352 -525,0 -967,-301 -967,-723 0,-192 128,-301 295,-301 179,0 294,128 294,295 0,76 -32,288 -326,294 173,224 486,294 691,294 314,0 678,-249 678,-819 V 1670 C 1696,1651 1248,1632 845,1440 365,1222 205,890 205,608 205,90 826,-70 1229,-70 c 422,0 717,256 838,556 26,-256 199,-524 499,-524 135,0 525,89 525,608 z M 2022,896 C 2022,288 1562,70 1274,70 960,70 698,294 698,614 c 0,352 268,884 1324,922 z"
       transform="scale(0.015625)" /><path
       id="LMRoman10-Regular-67-4"
       d="m 3104,2586 c 0,108 -77,313 -326,313 -128,0 -410,-38 -679,-301 -269,212 -537,231 -678,231 C 826,2829 384,2387 384,1894 384,1613 525,1370 685,1235 602,1139 486,928 486,704 486,506 570,262 768,134 384,26 179,-250 179,-506 c 0,-460 634,-812 1415,-812 755,0 1420,326 1420,825 0,224 -89,551 -416,730 -339,179 -710,179 -1100,179 -160,0 -436,0 -480,6 -205,26 -340,224 -340,429 0,26 0,173 109,301 250,-179 512,-198 634,-198 595,0 1037,441 1037,934 0,237 -103,474 -263,621 231,217 461,249 576,249 0,0 45,0 64,-6 -70,-26 -102,-96 -102,-173 0,-109 83,-185 185,-185 64,0 186,44 186,192 z M 1978,1894 c 0,-172 -7,-377 -103,-537 -51,-77 -198,-256 -454,-256 -557,0 -557,640 -557,787 0,173 6,378 102,538 52,76 199,256 455,256 557,0 557,-640 557,-788 z m 704,-2400 c 0,-345 -455,-665 -1082,-665 -646,0 -1088,326 -1088,665 0,295 243,532 525,551 h 377 c 551,0 1268,0 1268,-551 z"
       transform="scale(0.015625)" /><path
       id="LMRoman10-Regular-6e-1"
       d="m 3424,0 v 198 c -333,0 -493,0 -499,192 v 1223 c 0,550 0,749 -199,979 -89,109 -300,237 -672,237 -467,0 -768,-275 -947,-672 v 672 l -902,-71 v -198 c 448,0 499,-45 499,-358 V 486 C 704,198 634,198 205,198 V 0 L 928,19 1645,0 v 198 c -429,0 -499,0 -499,288 v 1178 c 0,666 454,1024 864,1024 403,0 473,-346 473,-710 V 486 c 0,-288 -70,-288 -499,-288 V 0 l 723,19 z"
       transform="scale(0.015625)" /><path
       id="LMRoman10-Regular-50-8"
       d="m 3994,3181 c 0,627 -634,1190 -1511,1190 H 224 v -198 h 154 c 492,0 505,-71 505,-301 V 499 C 883,269 870,198 378,198 H 224 V 0 c 224,19 698,19 941,19 243,0 723,0 947,-19 v 198 h -154 c -492,0 -505,71 -505,301 v 1523 h 1081 c 768,0 1460,519 1460,1159 z m -660,0 c 0,-301 0,-992 -1017,-992 h -883 v 1728 c 0,211 12,256 313,256 h 570 c 1017,0 1017,-679 1017,-992 z"
       transform="scale(0.015625)" /><path
       id="LMRoman10-Regular-4d-3"
       d="m 5626,0 v 198 h -154 c -493,0 -506,71 -506,301 v 3373 c 0,230 13,301 506,301 h 154 v 198 H 4544 c -166,0 -166,-6 -211,-121 L 2931,646 1542,4230 c -57,141 -76,141 -224,141 H 237 v -198 h 153 c 493,0 506,-71 506,-301 V 672 C 896,499 896,198 237,198 V 0 L 986,19 1734,0 v 198 c -659,0 -659,301 -659,474 v 3450 h 7 L 2624,141 c 32,-83 64,-141 128,-141 70,0 90,51 115,122 l 1575,4051 h 6 V 499 c 0,-230 -13,-301 -506,-301 H 3789 V 0 c 237,19 672,19 921,19 250,0 679,0 916,-19 z"
       transform="scale(0.015625)" /><path
       id="LMRoman10-Regular-2d-7"
       d="m 1766,1197 v 371 H 70 v -371 z"
       transform="scale(0.015625)" /><path
       id="LMRoman10-Regular-53-1"
       d="m 3194,1190 c 0,640 -423,1165 -960,1293 l -820,199 c -396,96 -646,441 -646,812 0,448 346,839 845,839 1069,0 1209,-1050 1248,-1338 6,-38 6,-77 77,-77 83,0 83,32 83,154 v 1286 c 0,109 0,154 -71,154 -44,0 -51,-6 -96,-83 l -224,-365 c -192,186 -454,448 -1024,448 -710,0 -1248,-563 -1248,-1242 0,-531 340,-998 839,-1171 70,-25 397,-102 845,-211 172,-45 364,-90 544,-326 134,-167 198,-378 198,-589 0,-455 -320,-915 -858,-915 -185,0 -672,32 -1011,345 -371,346 -390,755 -397,986 -6,64 -57,64 -76,64 -84,0 -84,-45 -84,-160 V 13 c 0,-109 0,-154 71,-154 45,0 51,13 96,83 0,0 19,26 230,365 199,-217 608,-448 1178,-448 749,0 1261,627 1261,1331 z"
       transform="scale(0.015625)" /><path
       id="LMRoman10-Regular-41-0"
       d="m 4589,0 v 198 h -115 c -384,0 -474,45 -544,256 L 2547,4454 c -32,84 -45,128 -147,128 -102,0 -122,-38 -154,-128 L 922,627 C 806,301 550,205 205,198 V 0 L 858,19 1594,0 v 198 c -320,0 -480,160 -480,327 0,19 6,83 12,96 l 295,838 h 1581 l 339,-979 c 6,-26 19,-64 19,-90 0,-192 -358,-192 -531,-192 V 0 c 230,19 678,19 921,19 z M 2931,1658 H 1491 l 717,2080 z"
       transform="scale(0.015625)" /><path
       id="LMRoman10-Regular-45-7"
       d="M 4173,1651 H 4013 C 3853,666 3706,198 2605,198 h -851 c -301,0 -314,45 -314,256 v 1709 h 576 c 621,0 691,-205 691,-749 h 160 v 1696 h -160 c 0,-550 -70,-748 -691,-748 h -576 v 1536 c 0,211 13,256 314,256 h 825 c 979,0 1152,-352 1255,-1242 h 160 L 3814,4352 H 211 v -198 h 154 c 493,0 505,-71 505,-301 V 499 C 870,269 858,198 365,198 H 211 V 0 h 3693 z"
       transform="scale(0.015625)" /><path
       id="LMRoman10-Regular-48-8"
       d="m 4582,0 v 198 h -153 c -493,0 -506,71 -506,301 v 3373 c 0,230 13,301 506,301 h 153 v 198 c -224,-19 -697,-19 -940,-19 -244,0 -724,0 -948,19 v -198 h 154 c 493,0 506,-71 506,-301 V 2374 H 1440 v 1498 c 0,230 13,301 506,301 h 153 v 198 c -224,-19 -697,-19 -941,-19 -243,0 -723,0 -947,19 v -198 h 154 c 493,0 505,-71 505,-301 V 499 C 870,269 858,198 365,198 H 211 V 0 c 224,19 698,19 941,19 243,0 723,0 947,-19 v 198 h -153 c -493,0 -506,71 -506,301 V 2176 H 3354 V 499 c 0,-230 -13,-301 -506,-301 H 2694 V 0 c 224,19 698,19 941,19 243,0 723,0 947,-19 z"
       transform="scale(0.015625)" /><path
       id="LMRoman10-Regular-47-3"
       d="m 4704,1549 v 198 l -781,-19 c -256,0 -800,0 -1030,19 v -198 h 205 c 576,0 595,-71 595,-307 V 832 C 3693,115 2880,58 2701,58 2285,58 1018,282 1018,2189 c 0,1913 1260,2125 1644,2125 685,0 1268,-576 1396,-1517 12,-90 12,-109 102,-109 102,0 102,19 102,154 v 1516 c 0,109 0,154 -70,154 -26,0 -51,0 -102,-77 L 3770,3962 C 3565,4166 3219,4512 2586,4512 1395,4512 358,3501 358,2189 358,877 1382,-141 2598,-141 c 468,0 980,167 1197,544 83,-141 339,-397 410,-397 57,0 57,52 57,148 v 1113 c 0,250 26,282 442,282 z"
       transform="scale(0.015625)" /><clipPath
       id="pf2aa36e0c6"><rect
         x="38.02375"
         y="20.112"
         width="184.14"
         height="138.60001"
         id="rect109" /></clipPath></defs><g
     inkscape:label="图层 1"
     inkscape:groupmode="layer"
     id="layer1"><g
       id="figure_1"
       transform="matrix(0.35277778,0,0,0.35277778,83.423344,0)"><g
         id="patch_1"><path
           d="M 0,193.617 H 249.36375 V 0 H 0 Z"
           style="fill:#ffffff"
           id="path1" /></g><g
         id="axes_1"><g
           id="patch_2"><path
             d="m 50.02375,158.712 h 184.14 v -138.6 h -184.14 z"
             style="fill:#ffffff"
             id="path2" /></g><g
           id="matplotlib.axis_1"><g
             id="xtick_1"><g
               id="line2d_1"><defs
                 id="defs2" /><g
                 id="g2"><use
                   xlink:href="#m6727cdee2e"
                   x="70.483749"
                   y="158.71201"
                   style="stroke:#000000;stroke-width:0.8"
                   id="use2" /></g></g><g
               id="text_1"><!-- 200 --><g
                 transform="matrix(0.08,0,0,-0.08,64.48375,171.2645)"
                 id="g5"><defs
                   id="defs3" /><use
                   xlink:href="#LMRoman10-Regular-32"
                   id="use3" /><use
                   xlink:href="#LMRoman10-Regular-30"
                   x="49.999985"
                   id="use4" /><use
                   xlink:href="#LMRoman10-Regular-30"
                   x="99.999969"
                   id="use5" /></g></g></g><g
             id="xtick_2"><g
               id="line2d_2"><g
                 id="g6"><use
                   xlink:href="#m6727cdee2e"
                   x="111.40375"
                   y="158.71201"
                   style="stroke:#000000;stroke-width:0.8"
                   id="use6" /></g></g><g
               id="text_2"><!-- 400 --><g
                 transform="matrix(0.08,0,0,-0.08,105.40375,171.2645)"
                 id="g9"><defs
                   id="defs6" /><use
                   xlink:href="#LMRoman10-Regular-34"
                   id="use7" /><use
                   xlink:href="#LMRoman10-Regular-30"
                   x="49.999985"
                   id="use8" /><use
                   xlink:href="#LMRoman10-Regular-30"
                   x="99.999969"
                   id="use9" /></g></g></g><g
             id="xtick_3"><g
               id="line2d_3"><g
                 id="g10"><use
                   xlink:href="#m6727cdee2e"
                   x="152.32375"
                   y="158.71201"
                   style="stroke:#000000;stroke-width:0.8"
                   id="use10" /></g></g><g
               id="text_3"><!-- 600 --><g
                 transform="matrix(0.08,0,0,-0.08,146.32375,171.2645)"
                 id="g13"><defs
                   id="defs10" /><use
                   xlink:href="#LMRoman10-Regular-36"
                   id="use11" /><use
                   xlink:href="#LMRoman10-Regular-30"
                   x="49.999985"
                   id="use12" /><use
                   xlink:href="#LMRoman10-Regular-30"
                   x="99.999969"
                   id="use13" /></g></g></g><g
             id="xtick_4"><g
               id="line2d_4"><g
                 id="g14"><use
                   xlink:href="#m6727cdee2e"
                   x="193.24374"
                   y="158.71201"
                   style="stroke:#000000;stroke-width:0.8"
                   id="use14" /></g></g><g
               id="text_4"><!-- 800 --><g
                 transform="matrix(0.08,0,0,-0.08,187.24375,171.2645)"
                 id="g17"><defs
                   id="defs14" /><use
                   xlink:href="#LMRoman10-Regular-38"
                   id="use15" /><use
                   xlink:href="#LMRoman10-Regular-30"
                   x="49.999985"
                   id="use16" /><use
                   xlink:href="#LMRoman10-Regular-30"
                   x="99.999969"
                   id="use17" /></g></g></g><g
             id="xtick_5"><g
               id="line2d_5"><g
                 id="g18"><use
                   xlink:href="#m6727cdee2e"
                   x="234.16376"
                   y="158.71201"
                   style="stroke:#000000;stroke-width:0.8"
                   id="use18" /></g></g><g
               id="text_5"><!-- 1000 --><g
                 transform="matrix(0.08,0,0,-0.08,226.16375,171.2645)"
                 id="g22"><defs
                   id="defs18" /><use
                   xlink:href="#LMRoman10-Regular-31"
                   id="use19" /><use
                   xlink:href="#LMRoman10-Regular-30"
                   x="49.999985"
                   id="use20" /><use
                   xlink:href="#LMRoman10-Regular-30"
                   x="99.999969"
                   id="use21" /><use
                   xlink:href="#LMRoman10-Regular-30"
                   x="149.99995"
                   id="use22" /></g></g></g><g
             id="text_6"><!-- $b / \nu$ --><g
               transform="matrix(0.096,0,0,-0.096,135.22975,184.017)"
               id="g25"><defs
                 id="defs22" /><use
                 xlink:href="#Cmmi10-62"
                 id="use23" /><use
                 xlink:href="#Cmmi10-3d"
                 transform="translate(42.919922)"
                 id="use24" /><use
                 xlink:href="#Cmmi10-ba"
                 transform="translate(92.919922)"
                 id="use25" /></g></g></g><g
           id="matplotlib.axis_2"><g
             id="ytick_1"><g
               id="line2d_6"><defs
                 id="defs25" /><g
                 id="g26"><use
                   xlink:href="#m125ed480b2"
                   x="50.02375"
                   y="158.71201"
                   style="stroke:#000000;stroke-width:0.8"
                   id="use26" /></g></g><g
               id="text_7"><!-- 0.0000 --><g
                 transform="matrix(0.08,0,0,-0.08,20.8,161.48825)"
                 id="g32"><defs
                   id="defs26" /><use
                   xlink:href="#LMRoman10-Regular-30"
                   id="use27" /><use
                   xlink:href="#LMRoman10-Regular-2e"
                   x="49.999985"
                   id="use28" /><use
                   xlink:href="#LMRoman10-Regular-30"
                   x="77.799973"
                   id="use29" /><use
                   xlink:href="#LMRoman10-Regular-30"
                   x="127.79996"
                   id="use30" /><use
                   xlink:href="#LMRoman10-Regular-30"
                   x="177.79994"
                   id="use31" /><use
                   xlink:href="#LMRoman10-Regular-30"
                   x="227.79993"
                   id="use32" /></g></g></g><g
             id="ytick_2"><g
               id="line2d_7"><g
                 id="g33"><use
                   xlink:href="#m125ed480b2"
                   x="50.02375"
                   y="139.4007"
                   style="stroke:#000000;stroke-width:0.8"
                   id="use33" /></g></g><g
               id="text_8"><!-- 0.0005 --><g
                 transform="matrix(0.08,0,0,-0.08,20.8,142.17695)"
                 id="g39"><defs
                   id="defs33" /><use
                   xlink:href="#LMRoman10-Regular-30"
                   id="use34" /><use
                   xlink:href="#LMRoman10-Regular-2e"
                   x="49.999985"
                   id="use35" /><use
                   xlink:href="#LMRoman10-Regular-30"
                   x="77.799973"
                   id="use36" /><use
                   xlink:href="#LMRoman10-Regular-30"
                   x="127.79996"
                   id="use37" /><use
                   xlink:href="#LMRoman10-Regular-30"
                   x="177.79994"
                   id="use38" /><use
                   xlink:href="#LMRoman10-Regular-35"
                   x="227.79993"
                   id="use39" /></g></g></g><g
             id="ytick_3"><g
               id="line2d_8"><g
                 id="g40"><use
                   xlink:href="#m125ed480b2"
                   x="50.02375"
                   y="120.08939"
                   style="stroke:#000000;stroke-width:0.8"
                   id="use40" /></g></g><g
               id="text_9"><!-- 0.0010 --><g
                 transform="matrix(0.08,0,0,-0.08,20.8,122.86564)"
                 id="g46"><use
                   xlink:href="#LMRoman10-Regular-30"
                   id="use41" /><use
                   xlink:href="#LMRoman10-Regular-2e"
                   x="49.999985"
                   id="use42" /><use
                   xlink:href="#LMRoman10-Regular-30"
                   x="77.799973"
                   id="use43" /><use
                   xlink:href="#LMRoman10-Regular-30"
                   x="127.79996"
                   id="use44" /><use
                   xlink:href="#LMRoman10-Regular-31"
                   x="177.79994"
                   id="use45" /><use
                   xlink:href="#LMRoman10-Regular-30"
                   x="227.79993"
                   id="use46" /></g></g></g><g
             id="ytick_4"><g
               id="line2d_9"><g
                 id="g47"><use
                   xlink:href="#m125ed480b2"
                   x="50.02375"
                   y="100.77809"
                   style="stroke:#000000;stroke-width:0.8"
                   id="use47" /></g></g><g
               id="text_10"><!-- 0.0015 --><g
                 transform="matrix(0.08,0,0,-0.08,20.8,103.55434)"
                 id="g53"><use
                   xlink:href="#LMRoman10-Regular-30"
                   id="use48" /><use
                   xlink:href="#LMRoman10-Regular-2e"
                   x="49.999985"
                   id="use49" /><use
                   xlink:href="#LMRoman10-Regular-30"
                   x="77.799973"
                   id="use50" /><use
                   xlink:href="#LMRoman10-Regular-30"
                   x="127.79996"
                   id="use51" /><use
                   xlink:href="#LMRoman10-Regular-31"
                   x="177.79994"
                   id="use52" /><use
                   xlink:href="#LMRoman10-Regular-35"
                   x="227.79993"
                   id="use53" /></g></g></g><g
             id="ytick_5"><g
               id="line2d_10"><g
                 id="g54"><use
                   xlink:href="#m125ed480b2"
                   x="50.02375"
                   y="81.466782"
                   style="stroke:#000000;stroke-width:0.8"
                   id="use54" /></g></g><g
               id="text_11"><!-- 0.0020 --><g
                 transform="matrix(0.08,0,0,-0.08,20.8,84.243035)"
                 id="g60"><use
                   xlink:href="#LMRoman10-Regular-30"
                   id="use55" /><use
                   xlink:href="#LMRoman10-Regular-2e"
                   x="49.999985"
                   id="use56" /><use
                   xlink:href="#LMRoman10-Regular-30"
                   x="77.799973"
                   id="use57" /><use
                   xlink:href="#LMRoman10-Regular-30"
                   x="127.79996"
                   id="use58" /><use
                   xlink:href="#LMRoman10-Regular-32"
                   x="177.79994"
                   id="use59" /><use
                   xlink:href="#LMRoman10-Regular-30"
                   x="227.79993"
                   id="use60" /></g></g></g><g
             id="ytick_6"><g
               id="line2d_11"><g
                 id="g61"><use
                   xlink:href="#m125ed480b2"
                   x="50.02375"
                   y="62.155479"
                   style="stroke:#000000;stroke-width:0.8"
                   id="use61" /></g></g><g
               id="text_12"><!-- 0.0025 --><g
                 transform="matrix(0.08,0,0,-0.08,20.8,64.931731)"
                 id="g67"><use
                   xlink:href="#LMRoman10-Regular-30"
                   id="use62" /><use
                   xlink:href="#LMRoman10-Regular-2e"
                   x="49.999985"
                   id="use63" /><use
                   xlink:href="#LMRoman10-Regular-30"
                   x="77.799973"
                   id="use64" /><use
                   xlink:href="#LMRoman10-Regular-30"
                   x="127.79996"
                   id="use65" /><use
                   xlink:href="#LMRoman10-Regular-32"
                   x="177.79994"
                   id="use66" /><use
                   xlink:href="#LMRoman10-Regular-35"
                   x="227.79993"
                   id="use67" /></g></g></g><g
             id="ytick_7"><g
               id="line2d_12"><g
                 id="g68"><use
                   xlink:href="#m125ed480b2"
                   x="50.02375"
                   y="42.844177"
                   style="stroke:#000000;stroke-width:0.8"
                   id="use68" /></g></g><g
               id="text_13"><!-- 0.0030 --><g
                 transform="matrix(0.08,0,0,-0.08,20.8,45.620428)"
                 id="g74"><defs
                   id="defs68" /><use
                   xlink:href="#LMRoman10-Regular-30"
                   id="use69" /><use
                   xlink:href="#LMRoman10-Regular-2e"
                   x="49.999985"
                   id="use70" /><use
                   xlink:href="#LMRoman10-Regular-30"
                   x="77.799973"
                   id="use71" /><use
                   xlink:href="#LMRoman10-Regular-30"
                   x="127.79996"
                   id="use72" /><use
                   xlink:href="#LMRoman10-Regular-33"
                   x="177.79994"
                   id="use73" /><use
                   xlink:href="#LMRoman10-Regular-30"
                   x="227.79993"
                   id="use74" /></g></g></g><g
             id="ytick_8"><g
               id="line2d_13"><g
                 id="g75"><use
                   xlink:href="#m125ed480b2"
                   x="50.02375"
                   y="23.532873"
                   style="stroke:#000000;stroke-width:0.8"
                   id="use75" /></g></g><g
               id="text_14"><!-- 0.0035 --><g
                 transform="matrix(0.08,0,0,-0.08,20.8,26.309124)"
                 id="g81"><use
                   xlink:href="#LMRoman10-Regular-30"
                   id="use76" /><use
                   xlink:href="#LMRoman10-Regular-2e"
                   x="49.999985"
                   id="use77" /><use
                   xlink:href="#LMRoman10-Regular-30"
                   x="77.799973"
                   id="use78" /><use
                   xlink:href="#LMRoman10-Regular-30"
                   x="127.79996"
                   id="use79" /><use
                   xlink:href="#LMRoman10-Regular-33"
                   x="177.79994"
                   id="use80" /><use
                   xlink:href="#LMRoman10-Regular-35"
                   x="227.79993"
                   id="use81" /></g></g></g><g
             id="text_15"><!-- $F / \mathcal{F}$ --><g
               transform="matrix(0,-0.096,-0.096,0,14.4,98.388)"
               id="g84"><defs
                 id="defs81" /><use
                 xlink:href="#Cmmi10-46"
                 id="use82" /><use
                 xlink:href="#Cmmi10-3d"
                 transform="translate(64.306641)"
                 id="use83" /><use
                 xlink:href="#Cmsy10-46"
                 transform="translate(114.30664)"
                 id="use84" /></g></g></g><g
           id="line2d_14"><path
             d="m 50.02375,158.18312 12.317057,0.19874 25.865819,0.14561 67.127964,0.0985 78.82916,0.0332 v 0"
             clip-path="url(#pdec4c0d0db)"
             style="fill:none;stroke:#0000ff;stroke-width:1.5;stroke-dasharray:5.55, 2.4;stroke-dashoffset:0"
             id="path84" /></g><g
           id="line2d_15"><path
             d="m 50.02375,26.709481 1.847559,10.884115 1.847558,9.225957 1.847559,7.919901 1.847558,6.872848 1.847559,6.020559 1.847558,5.317551 1.847559,4.730884 1.847558,4.236229 2.463412,5.004193 2.463411,4.39191 2.463411,3.885522 2.463412,3.461939 2.463411,3.104041 2.463411,2.79892 3.079265,3.13414 3.079264,2.79117 3.079264,2.50159 3.695117,2.67938 3.695117,2.38273 3.695117,2.13275 4.31097,2.22174 4.31097,1.97946 4.92682,2.01343 5.54268,2.00024 5.54267,1.76703 6.15853,1.73644 6.77438,1.68137 7.39024,1.60909 8.62194,1.6349 9.23779,1.51692 10.4695,1.48346 11.7012,1.42148 12.93291,1.34124 14.78047,1.30089 16.62803,1.23341 4.92682,0.32698 v 0"
             clip-path="url(#pdec4c0d0db)"
             style="fill:none;stroke:#008000;stroke-width:1.5;stroke-dasharray:9.6, 2.4, 1.5, 2.4;stroke-dashoffset:0"
             id="path85" /></g><g
           id="line2d_16"><path
             d="m 50.02375,121.16655 1.847559,3.09444 1.847558,2.6232 1.847559,2.25199 1.847558,1.95436 2.463411,2.23657 2.463412,1.90149 2.463411,1.63648 3.079264,1.75056 3.079265,1.49083 3.695117,1.52088 3.695117,1.29103 4.31097,1.27958 4.926822,1.23 5.542676,1.15625 6.774381,1.16613 7.39023,1.04066 8.62194,0.98927 10.4695,0.96467 12.31706,0.8982 14.78047,0.84237 17.85973,0.78371 21.55485,0.71778 27.09752,0.67194 14.16462,0.28045 v 0"
             clip-path="url(#pdec4c0d0db)"
             style="fill:none;stroke:#bf00bf;stroke-width:1.5;stroke-dasharray:5.55, 2.4;stroke-dashoffset:0"
             id="path86" /></g><g
           id="patch_3"><path
             d="M 50.02375,158.712 V 20.112"
             style="fill:none;stroke:#000000;stroke-width:0.8;stroke-linecap:square;stroke-linejoin:miter"
             id="path87" /></g><g
           id="patch_4"><path
             d="M 234.16375,158.712 V 20.112"
             style="fill:none;stroke:#000000;stroke-width:0.8;stroke-linecap:square;stroke-linejoin:miter"
             id="path88" /></g><g
           id="patch_5"><path
             d="m 50.02375,158.712 h 184.14"
             style="fill:none;stroke:#000000;stroke-width:0.8;stroke-linecap:square;stroke-linejoin:miter"
             id="path89" /></g><g
           id="patch_6"><path
             d="m 50.02375,20.112 h 184.14"
             style="fill:none;stroke:#000000;stroke-width:0.8;stroke-linecap:square;stroke-linejoin:miter"
             id="path90" /></g><g
           id="text_16"><!-- $A=0.47\sigma;\quad f=0.2$ --><g
             transform="matrix(0.096,0,0,-0.096,101.53375,14.112)"
             id="g102"><defs
               id="defs90" /><use
               xlink:href="#Cmmi10-41"
               transform="translate(0,0.421875)"
               id="use90" /><use
               xlink:href="#Cmr10-3d"
               transform="translate(92.558594,0.421875)"
               id="use91" /><use
               xlink:href="#Cmr10-30"
               transform="translate(187.80273,0.421875)"
               id="use92" /><use
               xlink:href="#Cmmi10-3a"
               transform="translate(237.80273,0.421875)"
               id="use93" /><use
               xlink:href="#Cmr10-34"
               transform="translate(265.48828,0.421875)"
               id="use94" /><use
               xlink:href="#Cmr10-37"
               transform="translate(315.48828,0.421875)"
               id="use95" /><use
               xlink:href="#Cmmi10-be"
               transform="translate(365.48828,0.421875)"
               id="use96" /><use
               xlink:href="#Cmr10-3b"
               transform="translate(422.56836,0.421875)"
               id="use97" /><use
               xlink:href="#Cmmi10-66"
               transform="translate(555.60547,0.421875)"
               id="use98" /><use
               xlink:href="#Cmr10-3d"
               transform="translate(622.04102,0.421875)"
               id="use99" /><use
               xlink:href="#Cmr10-30"
               transform="translate(717.28516,0.421875)"
               id="use100" /><use
               xlink:href="#Cmmi10-3a"
               transform="translate(767.28516,0.421875)"
               id="use101" /><use
               xlink:href="#Cmr10-32"
               transform="translate(794.9707,0.421875)"
               id="use102" /></g></g><g
           id="legend_1"><g
             id="line2d_17"><path
               d="m 152.65125,30.112 h 8 8"
               style="fill:none;stroke:#0000ff;stroke-width:1.5;stroke-dasharray:5.55, 2.4;stroke-dashoffset:0"
               id="path102" /></g><g
             id="text_17"><!-- Direct imaging --><g
               transform="matrix(0.08,0,0,-0.08,175.05125,32.912)"
               id="g116"><defs
                 id="defs102" /><use
                 xlink:href="#LMRoman10-Regular-44"
                 id="use103" /><use
                 xlink:href="#LMRoman10-Regular-69"
                 x="76.399994"
                 id="use104" /><use
                 xlink:href="#LMRoman10-Regular-72"
                 x="104.19998"
                 id="use105" /><use
                 xlink:href="#LMRoman10-Regular-65"
                 x="143.39998"
                 id="use106" /><use
                 xlink:href="#LMRoman10-Regular-63"
                 x="187.79997"
                 id="use107" /><use
                 xlink:href="#LMRoman10-Regular-74"
                 x="232.19997"
                 id="use108" /><use
                 xlink:href="#LMRoman10-Regular-20"
                 x="271.09995"
                 id="use109" /><use
                 xlink:href="#LMRoman10-Regular-69"
                 x="304.39993"
                 id="use110" /><use
                 xlink:href="#LMRoman10-Regular-6d"
                 x="332.19995"
                 id="use111" /><use
                 xlink:href="#LMRoman10-Regular-61"
                 x="415.49994"
                 id="use112" /><use
                 xlink:href="#LMRoman10-Regular-67"
                 x="465.49991"
                 id="use113" /><use
                 xlink:href="#LMRoman10-Regular-69"
                 x="515.49988"
                 id="use114" /><use
                 xlink:href="#LMRoman10-Regular-6e"
                 x="543.29987"
                 id="use115" /><use
                 xlink:href="#LMRoman10-Regular-67"
                 x="598.8999"
                 id="use116" /></g></g><g
             id="line2d_18"><path
               d="m 152.65125,41.3595 h 8 8"
               style="fill:none;stroke:#008000;stroke-width:1.5;stroke-dasharray:9.6, 2.4, 1.5, 2.4;stroke-dashoffset:0"
               id="path116" /></g><g
             id="text_18"><!-- PM-SPADE --><g
               transform="matrix(0.08,0,0,-0.08,175.05125,44.1595)"
               id="g124"><defs
                 id="defs116" /><use
                 xlink:href="#LMRoman10-Regular-50"
                 id="use117" /><use
                 xlink:href="#LMRoman10-Regular-4d"
                 x="68.099991"
                 id="use118" /><use
                 xlink:href="#LMRoman10-Regular-2d"
                 x="159.79997"
                 id="use119" /><use
                 xlink:href="#LMRoman10-Regular-53"
                 x="193.09996"
                 id="use120" /><use
                 xlink:href="#LMRoman10-Regular-50"
                 x="248.69995"
                 id="use121" /><use
                 xlink:href="#LMRoman10-Regular-41"
                 x="316.79993"
                 id="use122" /><use
                 xlink:href="#LMRoman10-Regular-44"
                 x="391.79993"
                 id="use123" /><use
                 xlink:href="#LMRoman10-Regular-45"
                 x="468.19992"
                 id="use124" /></g></g><g
             id="line2d_19"><path
               d="m 152.65125,52.512 h 8 8"
               style="fill:none;stroke:#bf00bf;stroke-width:1.5;stroke-dasharray:5.55, 2.4;stroke-dashoffset:0"
               id="path124" /></g><g
             id="text_19"><!-- HG-SPADE --><g
               transform="matrix(0.08,0,0,-0.08,175.05125,55.312)"
               id="g132"><defs
                 id="defs124" /><use
                 xlink:href="#LMRoman10-Regular-48"
                 id="use125" /><use
                 xlink:href="#LMRoman10-Regular-47"
                 x="74.999985"
                 id="use126" /><use
                 xlink:href="#LMRoman10-Regular-2d"
                 x="153.49997"
                 id="use127" /><use
                 xlink:href="#LMRoman10-Regular-53"
                 x="186.79996"
                 id="use128" /><use
                 xlink:href="#LMRoman10-Regular-50"
                 x="242.39995"
                 id="use129" /><use
                 xlink:href="#LMRoman10-Regular-41"
                 x="310.49994"
                 id="use130" /><use
                 xlink:href="#LMRoman10-Regular-44"
                 x="385.49994"
                 id="use131" /><use
                 xlink:href="#LMRoman10-Regular-45"
                 x="461.89993"
                 id="use132" /></g></g></g></g></g><g
       id="figure_1-8"
       transform="scale(0.35277778)"><g
         id="patch_1-8"><path
           d="M 0,193.617 H 236.47562 V 0 H 0 Z"
           style="fill:#ffffff"
           id="path1-2" /></g><g
         id="axes_1-4"><g
           id="patch_2-5"><path
             d="m 38.02375,158.712 h 184.14 v -138.6 h -184.14 z"
             style="fill:#ffffff"
             id="path2-5" /></g><g
           id="matplotlib.axis_1-1"><g
             id="xtick_1-7"><g
               id="line2d_1-1"><defs
                 id="defs2-1" /><g
                 id="g2-5"><use
                   xlink:href="#m23bd8aeeb6"
                   x="38.02375"
                   y="158.71201"
                   style="stroke:#000000;stroke-width:0.8"
                   id="use2-2" /></g></g><g
               id="text_1-7"><!-- 0.00 --><g
                 transform="matrix(0.08,0,0,-0.08,30.911875,171.2645)"
                 id="g6-6"><defs
                   id="defs3-1" /><use
                   xlink:href="#LMRoman10-Regular-30-4"
                   id="use3-3" /><use
                   xlink:href="#LMRoman10-Regular-2e-2"
                   x="49.999985"
                   id="use4-2" /><use
                   xlink:href="#LMRoman10-Regular-30-4"
                   x="77.799973"
                   id="use5-2" /><use
                   xlink:href="#LMRoman10-Regular-30-4"
                   x="127.79996"
                   id="use6-1" /></g></g></g><g
             id="xtick_2-6"><g
               id="line2d_2-8"><g
                 id="g7"><use
                   xlink:href="#m23bd8aeeb6"
                   x="74.851753"
                   y="158.71201"
                   style="stroke:#000000;stroke-width:0.8"
                   id="use7-5" /></g></g><g
               id="text_2-7"><!-- 0.02 --><g
                 transform="matrix(0.08,0,0,-0.08,67.739875,171.2645)"
                 id="g11"><defs
                   id="defs7" /><use
                   xlink:href="#LMRoman10-Regular-30-4"
                   id="use8-1" /><use
                   xlink:href="#LMRoman10-Regular-2e-2"
                   x="49.999985"
                   id="use9-8" /><use
                   xlink:href="#LMRoman10-Regular-30-4"
                   x="77.799973"
                   id="use10-9" /><use
                   xlink:href="#LMRoman10-Regular-32-6"
                   x="127.79996"
                   id="use11-2" /></g></g></g><g
             id="xtick_3-7"><g
               id="line2d_3-9"><g
                 id="g12"><use
                   xlink:href="#m23bd8aeeb6"
                   x="111.67975"
                   y="158.71201"
                   style="stroke:#000000;stroke-width:0.8"
                   id="use12-5" /></g></g><g
               id="text_3-4"><!-- 0.04 --><g
                 transform="matrix(0.08,0,0,-0.08,104.56788,171.2645)"
                 id="g16"><defs
                   id="defs12" /><use
                   xlink:href="#LMRoman10-Regular-30-4"
                   id="use13-1" /><use
                   xlink:href="#LMRoman10-Regular-2e-2"
                   x="49.999985"
                   id="use14-2" /><use
                   xlink:href="#LMRoman10-Regular-30-4"
                   x="77.799973"
                   id="use15-3" /><use
                   xlink:href="#LMRoman10-Regular-34-3"
                   x="127.79996"
                   id="use16-3" /></g></g></g><g
             id="xtick_4-4"><g
               id="line2d_4-1"><g
                 id="g17-1"><use
                   xlink:href="#m23bd8aeeb6"
                   x="148.50775"
                   y="158.71201"
                   style="stroke:#000000;stroke-width:0.8"
                   id="use17-3" /></g></g><g
               id="text_4-8"><!-- 0.06 --><g
                 transform="matrix(0.08,0,0,-0.08,141.39587,171.2645)"
                 id="g21"><defs
                   id="defs17" /><use
                   xlink:href="#LMRoman10-Regular-30-4"
                   id="use18-4" /><use
                   xlink:href="#LMRoman10-Regular-2e-2"
                   x="49.999985"
                   id="use19-2" /><use
                   xlink:href="#LMRoman10-Regular-30-4"
                   x="77.799973"
                   id="use20-7" /><use
                   xlink:href="#LMRoman10-Regular-36-7"
                   x="127.79996"
                   id="use21-7" /></g></g></g><g
             id="xtick_5-9"><g
               id="line2d_5-3"><g
                 id="g22-1"><use
                   xlink:href="#m23bd8aeeb6"
                   x="185.33575"
                   y="158.71201"
                   style="stroke:#000000;stroke-width:0.8"
                   id="use22-9" /></g></g><g
               id="text_5-8"><!-- 0.08 --><g
                 transform="matrix(0.08,0,0,-0.08,178.22387,171.2645)"
                 id="g26-6"><defs
                   id="defs22-5" /><use
                   xlink:href="#LMRoman10-Regular-30-4"
                   id="use23-2" /><use
                   xlink:href="#LMRoman10-Regular-2e-2"
                   x="49.999985"
                   id="use24-8" /><use
                   xlink:href="#LMRoman10-Regular-30-4"
                   x="77.799973"
                   id="use25-6" /><use
                   xlink:href="#LMRoman10-Regular-38-0"
                   x="127.79996"
                   id="use26-0" /></g></g></g><g
             id="xtick_6"><g
               id="line2d_6-2"><g
                 id="g27"><use
                   xlink:href="#m23bd8aeeb6"
                   x="222.16376"
                   y="158.71201"
                   style="stroke:#000000;stroke-width:0.8"
                   id="use27-4" /></g></g><g
               id="text_6-8"><!-- 0.10 --><g
                 transform="matrix(0.08,0,0,-0.08,215.05187,171.2645)"
                 id="g31"><defs
                   id="defs27" /><use
                   xlink:href="#LMRoman10-Regular-30-4"
                   id="use28-5" /><use
                   xlink:href="#LMRoman10-Regular-2e-2"
                   x="49.999985"
                   id="use29-0" /><use
                   xlink:href="#LMRoman10-Regular-31-6"
                   x="77.799973"
                   id="use30-9" /><use
                   xlink:href="#LMRoman10-Regular-30-4"
                   x="127.79996"
                   id="use31-0" /></g></g></g><g
             id="text_7-0"><!-- $b / \nu$ --><g
               transform="matrix(0.096,0,0,-0.096,123.22975,184.017)"
               id="g34"><defs
                 id="defs31" /><use
                 xlink:href="#Cmmi10-62-6"
                 id="use32-8" /><use
                 xlink:href="#Cmmi10-3d-1"
                 transform="translate(42.919922)"
                 id="use33-9" /><use
                 xlink:href="#Cmmi10-ba-3"
                 transform="translate(92.919922)"
                 id="use34-3" /></g></g></g><g
           id="matplotlib.axis_2-4"><g
             id="ytick_1-4"><g
               id="line2d_7-6"><defs
                 id="defs34" /><g
                 id="g35"><use
                   xlink:href="#m82e1198068"
                   x="38.02375"
                   y="158.71201"
                   style="stroke:#000000;stroke-width:0.8"
                   id="use35-0" /></g></g><g
               id="text_8-6"><!-- 0.0 --><g
                 transform="matrix(0.08,0,0,-0.08,20.8,161.48825)"
                 id="g38"><use
                   xlink:href="#LMRoman10-Regular-30-4"
                   id="use36-6" /><use
                   xlink:href="#LMRoman10-Regular-2e-2"
                   x="49.999985"
                   id="use37-1" /><use
                   xlink:href="#LMRoman10-Regular-30-4"
                   x="77.799973"
                   id="use38-8" /></g></g></g><g
             id="ytick_2-4"><g
               id="line2d_8-9"><g
                 id="g39-6"><use
                   xlink:href="#m82e1198068"
                   x="38.02375"
                   y="130.992"
                   style="stroke:#000000;stroke-width:0.8"
                   id="use39-3" /></g></g><g
               id="text_9-7"><!-- 0.2 --><g
                 transform="matrix(0.08,0,0,-0.08,20.8,133.76825)"
                 id="g42"><use
                   xlink:href="#LMRoman10-Regular-30-4"
                   id="use40-8" /><use
                   xlink:href="#LMRoman10-Regular-2e-2"
                   x="49.999985"
                   id="use41-8" /><use
                   xlink:href="#LMRoman10-Regular-32-6"
                   x="77.799973"
                   id="use42-2" /></g></g></g><g
             id="ytick_3-9"><g
               id="line2d_9-1"><g
                 id="g43"><use
                   xlink:href="#m82e1198068"
                   x="38.02375"
                   y="103.272"
                   style="stroke:#000000;stroke-width:0.8"
                   id="use43-3" /></g></g><g
               id="text_10-5"><!-- 0.4 --><g
                 transform="matrix(0.08,0,0,-0.08,20.8,106.04825)"
                 id="g46-9"><use
                   xlink:href="#LMRoman10-Regular-30-4"
                   id="use44-8" /><use
                   xlink:href="#LMRoman10-Regular-2e-2"
                   x="49.999985"
                   id="use45-4" /><use
                   xlink:href="#LMRoman10-Regular-34-3"
                   x="77.799973"
                   id="use46-0" /></g></g></g><g
             id="ytick_4-7"><g
               id="line2d_10-6"><g
                 id="g47-3"><use
                   xlink:href="#m82e1198068"
                   x="38.02375"
                   y="75.552002"
                   style="stroke:#000000;stroke-width:0.8"
                   id="use47-6" /></g></g><g
               id="text_11-1"><!-- 0.6 --><g
                 transform="matrix(0.08,0,0,-0.08,20.8,78.32825)"
                 id="g50"><use
                   xlink:href="#LMRoman10-Regular-30-4"
                   id="use48-5" /><use
                   xlink:href="#LMRoman10-Regular-2e-2"
                   x="49.999985"
                   id="use49-4" /><use
                   xlink:href="#LMRoman10-Regular-36-7"
                   x="77.799973"
                   id="use50-2" /></g></g></g><g
             id="ytick_5-0"><g
               id="line2d_11-9"><g
                 id="g51"><use
                   xlink:href="#m82e1198068"
                   x="38.02375"
                   y="47.832001"
                   style="stroke:#000000;stroke-width:0.8"
                   id="use51-7" /></g></g><g
               id="text_12-3"><!-- 0.8 --><g
                 transform="matrix(0.08,0,0,-0.08,20.8,50.60825)"
                 id="g54-7"><use
                   xlink:href="#LMRoman10-Regular-30-4"
                   id="use52-2" /><use
                   xlink:href="#LMRoman10-Regular-2e-2"
                   x="49.999985"
                   id="use53-6" /><use
                   xlink:href="#LMRoman10-Regular-38-0"
                   x="77.799973"
                   id="use54-0" /></g></g></g><g
             id="ytick_6-1"><g
               id="line2d_12-6"><g
                 id="g55"><use
                   xlink:href="#m82e1198068"
                   x="38.02375"
                   y="20.112"
                   style="stroke:#000000;stroke-width:0.8"
                   id="use55-5" /></g></g><g
               id="text_13-7"><!-- 1.0 --><g
                 transform="matrix(0.08,0,0,-0.08,20.8,22.88825)"
                 id="g58"><use
                   xlink:href="#LMRoman10-Regular-31-6"
                   id="use56-5" /><use
                   xlink:href="#LMRoman10-Regular-2e-2"
                   x="49.999985"
                   id="use57-4" /><use
                   xlink:href="#LMRoman10-Regular-30-4"
                   x="77.799973"
                   id="use58-1" /></g></g></g><g
             id="text_14-2"><!-- $F / \mathcal{F}$ --><g
               transform="matrix(0,-0.096,-0.096,0,14.4,98.388)"
               id="g61-0"><defs
                 id="defs58" /><use
                 xlink:href="#Cmmi10-46-0"
                 id="use59-4" /><use
                 xlink:href="#Cmmi10-3d-1"
                 transform="translate(64.306641)"
                 id="use60-6" /><use
                 xlink:href="#Cmsy10-46-1"
                 transform="translate(114.30664)"
                 id="use61-0" /></g></g></g><g
           id="line2d_13-7"><path
             d="m 38.02375,20.112 0.615853,42.164129 0.615853,17.179971 0.615853,11.146319 0.615852,8.081525 0.615853,6.216926 1.231706,9.04996 1.231706,6.33797 1.231705,4.71778 1.231706,3.66141 1.231706,2.93018 1.231705,2.40124 1.231706,2.00539 1.847559,2.45842 1.847558,1.97407 1.847559,1.62092 1.847558,1.35528 2.463411,1.49603 2.463412,1.22846 3.079264,1.25799 3.079264,1.02858 3.695117,1.01127 4.31097,0.95401 5.542676,0.97158 6.158528,0.84378 7.390234,0.78761 9.237796,0.75148 11.7012,0.70873 14.16462,0.62714 18.47558,0.58511 24.01826,0.52756 32.6402,0.47986 16.62803,0.18038 v 0"
             clip-path="url(#pf2aa36e0c6)"
             style="fill:none;stroke:#0000ff;stroke-width:1.5;stroke-dasharray:5.55, 2.4;stroke-dashoffset:0"
             id="path62" /></g><g
           id="line2d_14-1"><path
             d="m 38.02375,36.460394 15.396321,3.306635 16.012174,3.209673 17.24388,3.225492 18.475585,3.220783 19.09144,3.102198 20.32314,3.079052 21.55485,3.042831 23.40241,3.073926 24.63411,3.007366 8.00609,0.931566 v 0"
             clip-path="url(#pf2aa36e0c6)"
             style="fill:none;stroke:#008000;stroke-width:1.5;stroke-dasharray:9.6, 2.4, 1.5, 2.4;stroke-dashoffset:0"
             id="path63" /></g><g
           id="line2d_15-7"><path
             d="m 38.02375,20.110757 0.615853,8.709325 0.615853,3.48397 1.231705,4.942664 1.231706,3.886181 1.847559,4.815797 1.847558,4.040593 1.847559,3.500374 1.847558,3.092358 2.463412,3.63281 2.463411,3.194315 2.463411,2.848378 3.079264,3.172687 3.079265,2.826491 3.079264,2.546493 3.695117,2.754251 3.695117,2.483857 4.31097,2.617689 4.31097,2.368157 4.926823,2.453729 5.542675,2.493302 5.542676,2.25827 6.158524,2.279303 6.77438,2.273099 7.39024,2.245613 8.00609,2.201907 8.62194,2.14614 9.85364,2.21342 10.4695,2.11775 11.7012,2.12887 12.31706,2.01409 13.54876,1.99113 14.78047,1.94817 14.78047,1.75234 v 0"
             clip-path="url(#pf2aa36e0c6)"
             style="fill:none;stroke:#bf00bf;stroke-width:1.5;stroke-dasharray:5.55, 2.4;stroke-dashoffset:0"
             id="path64" /></g><g
           id="patch_3-7"><path
             d="M 38.02375,158.712 V 20.112"
             style="fill:none;stroke:#000000;stroke-width:0.8;stroke-linecap:square;stroke-linejoin:miter"
             id="path65" /></g><g
           id="patch_4-7"><path
             d="M 222.16375,158.712 V 20.112"
             style="fill:none;stroke:#000000;stroke-width:0.8;stroke-linecap:square;stroke-linejoin:miter"
             id="path66" /></g><g
           id="patch_5-7"><path
             d="m 38.02375,158.712 h 184.14"
             style="fill:none;stroke:#000000;stroke-width:0.8;stroke-linecap:square;stroke-linejoin:miter"
             id="path67" /></g><g
           id="patch_6-3"><path
             d="m 38.02375,20.112 h 184.14"
             style="fill:none;stroke:#000000;stroke-width:0.8;stroke-linecap:square;stroke-linejoin:miter"
             id="path68" /></g><g
           id="text_15-3"><!-- $A=0.47\sigma;\quad f=0.2$ --><g
             transform="matrix(0.096,0,0,-0.096,89.53375,14.112)"
             id="g79"><defs
               id="defs67" /><use
               xlink:href="#Cmmi10-41-5"
               transform="translate(0,0.421875)"
               id="use67-3" /><use
               xlink:href="#Cmr10-3d-9"
               transform="translate(92.558594,0.421875)"
               id="use68-8" /><use
               xlink:href="#Cmr10-30-9"
               transform="translate(187.80273,0.421875)"
               id="use69-0" /><use
               xlink:href="#Cmmi10-3a-8"
               transform="translate(237.80273,0.421875)"
               id="use70-1" /><use
               xlink:href="#Cmr10-34-1"
               transform="translate(265.48828,0.421875)"
               id="use71-2" /><use
               xlink:href="#Cmr10-37-8"
               transform="translate(315.48828,0.421875)"
               id="use72-5" /><use
               xlink:href="#Cmmi10-be-2"
               transform="translate(365.48828,0.421875)"
               id="use73-0" /><use
               xlink:href="#Cmr10-3b-6"
               transform="translate(422.56836,0.421875)"
               id="use74-9" /><use
               xlink:href="#Cmmi10-66-6"
               transform="translate(555.60547,0.421875)"
               id="use75-4" /><use
               xlink:href="#Cmr10-3d-9"
               transform="translate(622.04102,0.421875)"
               id="use76-7" /><use
               xlink:href="#Cmr10-30-9"
               transform="translate(717.28516,0.421875)"
               id="use77-8" /><use
               xlink:href="#Cmmi10-3a-8"
               transform="translate(767.28516,0.421875)"
               id="use78-3" /><use
               xlink:href="#Cmr10-32-0"
               transform="translate(794.9707,0.421875)"
               id="use79-5" /></g></g><g
           id="legend_1-1"><g
             id="line2d_16-2"><path
               d="m 140.65125,124.7595 h 8 8"
               style="fill:none;stroke:#0000ff;stroke-width:1.5;stroke-dasharray:5.55, 2.4;stroke-dashoffset:0"
               id="path79" /></g><g
             id="text_16-0"><!-- Direct imaging --><g
               transform="matrix(0.08,0,0,-0.08,163.05125,127.5595)"
               id="g93"><defs
                 id="defs79" /><use
                 xlink:href="#LMRoman10-Regular-44-1"
                 id="use80-4" /><use
                 xlink:href="#LMRoman10-Regular-69-6"
                 x="76.399994"
                 id="use81-3" /><use
                 xlink:href="#LMRoman10-Regular-72-4"
                 x="104.19998"
                 id="use82-9" /><use
                 xlink:href="#LMRoman10-Regular-65-0"
                 x="143.39998"
                 id="use83-8" /><use
                 xlink:href="#LMRoman10-Regular-63-6"
                 x="187.79997"
                 id="use84-8" /><use
                 xlink:href="#LMRoman10-Regular-74-1"
                 x="232.19997"
                 id="use85" /><use
                 xlink:href="#LMRoman10-Regular-20-8"
                 x="271.09995"
                 id="use86" /><use
                 xlink:href="#LMRoman10-Regular-69-6"
                 x="304.39993"
                 id="use87" /><use
                 xlink:href="#LMRoman10-Regular-6d-9"
                 x="332.19995"
                 id="use88" /><use
                 xlink:href="#LMRoman10-Regular-61-8"
                 x="415.49994"
                 id="use89" /><use
                 xlink:href="#LMRoman10-Regular-67-4"
                 x="465.49991"
                 id="use90-0" /><use
                 xlink:href="#LMRoman10-Regular-69-6"
                 x="515.49988"
                 id="use91-8" /><use
                 xlink:href="#LMRoman10-Regular-6e-1"
                 x="543.29987"
                 id="use92-7" /><use
                 xlink:href="#LMRoman10-Regular-67-4"
                 x="598.8999"
                 id="use93-7" /></g></g><g
             id="line2d_17-8"><path
               d="m 140.65125,136.007 h 8 8"
               style="fill:none;stroke:#008000;stroke-width:1.5;stroke-dasharray:9.6, 2.4, 1.5, 2.4;stroke-dashoffset:0"
               id="path98" /></g><g
             id="text_17-3"><!-- PM-SPADE --><g
               transform="matrix(0.08,0,0,-0.08,163.05125,138.807)"
               id="g101"><defs
                 id="defs93" /><use
                 xlink:href="#LMRoman10-Regular-50-8"
                 id="use94-3" /><use
                 xlink:href="#LMRoman10-Regular-4d-3"
                 x="68.099991"
                 id="use95-4" /><use
                 xlink:href="#LMRoman10-Regular-2d-7"
                 x="159.79997"
                 id="use96-9" /><use
                 xlink:href="#LMRoman10-Regular-53-1"
                 x="193.09996"
                 id="use97-6" /><use
                 xlink:href="#LMRoman10-Regular-50-8"
                 x="248.69995"
                 id="use98-5" /><use
                 xlink:href="#LMRoman10-Regular-41-0"
                 x="316.79993"
                 id="use99-1" /><use
                 xlink:href="#LMRoman10-Regular-44-1"
                 x="391.79993"
                 id="use100-0" /><use
                 xlink:href="#LMRoman10-Regular-45-7"
                 x="468.19992"
                 id="use101-9" /></g></g><g
             id="line2d_18-9"><path
               d="m 140.65125,147.1595 h 8 8"
               style="fill:none;stroke:#bf00bf;stroke-width:1.5;stroke-dasharray:5.55, 2.4;stroke-dashoffset:0"
               id="path106" /></g><g
             id="text_18-6"><!-- HG-SPADE --><g
               transform="matrix(0.08,0,0,-0.08,163.05125,149.9595)"
               id="g109"><defs
                 id="defs101" /><use
                 xlink:href="#LMRoman10-Regular-48-8"
                 id="use102-4" /><use
                 xlink:href="#LMRoman10-Regular-47-3"
                 x="74.999985"
                 id="use103-8" /><use
                 xlink:href="#LMRoman10-Regular-2d-7"
                 x="153.49997"
                 id="use104-4" /><use
                 xlink:href="#LMRoman10-Regular-53-1"
                 x="186.79996"
                 id="use105-9" /><use
                 xlink:href="#LMRoman10-Regular-50-8"
                 x="242.39995"
                 id="use106-9" /><use
                 xlink:href="#LMRoman10-Regular-41-0"
                 x="310.49994"
                 id="use107-2" /><use
                 xlink:href="#LMRoman10-Regular-44-1"
                 x="385.49994"
                 id="use108-5" /><use
                 xlink:href="#LMRoman10-Regular-45-7"
                 x="461.89993"
                 id="use109-5" /></g></g></g></g></g></g></svg>
