<?xml version="1.0" encoding="utf-8" standalone="no"?>
<!DOCTYPE svg PUBLIC "-//W3C//DTD SVG 1.1//EN"
  "http://www.w3.org/Graphics/SVG/1.1/DTD/svg11.dtd">
<svg xmlns:xlink="http://www.w3.org/1999/xlink" width="405.32pt" height="324.722pt" viewBox="0 0 405.32 324.722" xmlns="http://www.w3.org/2000/svg" version="1.1">
 <metadata>
  <rdf:RDF xmlns:dc="http://purl.org/dc/elements/1.1/" xmlns:cc="http://creativecommons.org/ns#" xmlns:rdf="http://www.w3.org/1999/02/22-rdf-syntax-ns#">
   <cc:Work>
    <dc:type rdf:resource="http://purl.org/dc/dcmitype/StillImage"/>
    <dc:date>2024-12-12T15:48:54.230485</dc:date>
    <dc:format>image/svg+xml</dc:format>
    <dc:creator>
     <cc:Agent>
      <dc:title>Matplotlib v3.9.2, https://matplotlib.org/</dc:title>
     </cc:Agent>
    </dc:creator>
   </cc:Work>
  </rdf:RDF>
 </metadata>
 <defs>
  <style type="text/css">*{stroke-linejoin: round; stroke-linecap: butt}</style>
 </defs>
 <g id="figure_1">
  <g id="patch_1">
   <path d="M 0 324.722 
L 405.32 324.722 
L 405.32 0 
L 0 0 
z
" style="fill: #ffffff"/>
  </g>
  <g id="axes_1">
   <g id="patch_2">
    <path d="M 41 287.64075 
L 398.12 287.64075 
L 398.12 21.52875 
L 41 21.52875 
z
" style="fill: #ffffff"/>
   </g>
   <g id="PolyCollection_1">
    <path d="M 57.232727 33.62475 
L 57.232727 49.159766 
L 58.318528 63.362123 
L 59.40433 75.888685 
L 60.490131 87.019529 
L 61.575932 96.975614 
L 62.661733 105.933594 
L 63.747534 114.036396 
L 64.833335 121.400903 
L 65.919137 128.123621 
L 67.004938 134.284944 
L 68.090739 139.952373 
L 69.17654 145.183006 
L 70.262341 150.025465 
L 71.348142 154.521416 
L 72.433943 158.706765 
L 73.519745 162.612626 
L 74.605546 166.266088 
L 75.691347 169.690851 
L 76.777148 172.907739 
L 77.862949 175.935118 
L 78.94875 178.789257 
L 80.034552 181.484613 
L 81.120353 184.034076 
L 82.206154 186.44918 
L 83.291955 188.740273 
L 84.377756 190.916669 
L 85.463557 192.986769 
L 86.549358 194.958176 
L 87.63516 196.837782 
L 88.720961 198.631855 
L 89.806762 200.346102 
L 90.892563 201.985736 
L 91.978364 203.555524 
L 93.064165 205.059836 
L 94.149967 206.502684 
L 95.235768 207.887761 
L 96.321569 209.218468 
L 97.40737 210.497945 
L 98.493171 211.729093 
L 99.578972 212.914602 
L 100.664773 214.056962 
L 101.750575 215.158486 
L 102.836376 216.221327 
L 103.922177 217.247487 
L 105.007978 218.238832 
L 106.093779 219.197104 
L 107.17958 220.123932 
L 108.265382 221.020838 
L 109.351183 221.889249 
L 110.436984 222.7305 
L 111.522785 223.545847 
L 112.608586 224.336467 
L 113.694387 225.10347 
L 114.780189 225.847897 
L 115.86599 226.57073 
L 116.951791 227.272897 
L 118.037592 227.95527 
L 119.123393 228.618675 
L 120.209194 229.263892 
L 121.294995 229.891659 
L 122.380797 230.502675 
L 123.466598 231.0976 
L 124.552399 231.677063 
L 125.6382 232.241659 
L 126.724001 232.791951 
L 127.809802 233.328478 
L 128.895604 233.851749 
L 129.981405 234.36225 
L 131.067206 234.860442 
L 132.153007 235.346765 
L 133.238808 235.821638 
L 134.324609 236.285462 
L 135.41041 236.738617 
L 136.496212 237.181467 
L 137.582013 237.614359 
L 138.667814 238.037627 
L 139.753615 238.451587 
L 140.839416 238.856543 
L 141.925217 239.252785 
L 143.011019 239.640592 
L 144.09682 240.020231 
L 145.182621 240.391956 
L 146.268422 240.756013 
L 147.354223 241.112636 
L 148.440024 241.462051 
L 149.525825 241.804475 
L 150.611627 242.140114 
L 151.697428 242.469169 
L 152.783229 242.791832 
L 153.86903 243.108286 
L 154.954831 243.41871 
L 156.040632 243.723274 
L 157.126434 244.022143 
L 158.212235 244.315474 
L 159.298036 244.603421 
L 160.383837 244.88613 
L 161.469638 245.163743 
L 162.555439 245.436396 
L 163.64124 245.704221 
L 164.727042 245.967346 
L 165.812843 246.225892 
L 166.898644 246.479979 
L 167.984445 246.729721 
L 169.070246 246.975228 
L 170.156047 247.216607 
L 171.241849 247.453961 
L 172.32765 247.687391 
L 173.413451 247.916992 
L 174.499252 248.142859 
L 175.585053 248.365081 
L 176.670854 248.583746 
L 177.756656 248.798938 
L 178.842457 249.010741 
L 179.928258 249.219233 
L 181.014059 249.424491 
L 182.09986 249.62659 
L 183.185661 249.825602 
L 184.271462 250.021598 
L 185.357264 250.214646 
L 186.443065 250.404811 
L 187.528866 250.592158 
L 188.614667 250.776749 
L 189.700468 250.958644 
L 190.786269 251.137902 
L 191.872071 251.314579 
L 192.957872 251.488732 
L 194.043673 251.660414 
L 195.129474 251.829677 
L 196.215275 251.996571 
L 197.301076 252.161147 
L 198.386877 252.323452 
L 199.472679 252.483533 
L 200.55848 252.641436 
L 201.644281 252.797203 
L 202.730082 252.95088 
L 203.815883 253.102506 
L 204.901684 253.252124 
L 205.987486 253.399772 
L 207.073287 253.545489 
L 208.159088 253.689314 
L 209.244889 253.831282 
L 210.33069 253.971429 
L 211.416491 254.109791 
L 212.502292 254.2464 
L 213.588094 254.381291 
L 214.673895 254.514495 
L 215.759696 254.646044 
L 216.845497 254.775968 
L 217.931298 254.904298 
L 219.017099 255.031062 
L 220.102901 255.156289 
L 221.188702 255.280007 
L 222.274503 255.402243 
L 223.360304 255.523023 
L 224.446105 255.642373 
L 225.531906 255.760319 
L 226.617708 255.876885 
L 227.703509 255.992095 
L 228.78931 256.105973 
L 229.875111 256.218541 
L 230.960912 256.329823 
L 232.046713 256.43984 
L 233.132514 256.548613 
L 234.218316 256.656164 
L 235.304117 256.762513 
L 236.389918 256.867679 
L 237.475719 256.971684 
L 238.56152 257.074545 
L 239.647321 257.176282 
L 240.733123 257.276912 
L 241.818924 257.376455 
L 242.904725 257.474926 
L 243.990526 257.572344 
L 245.076327 257.668726 
L 246.162128 257.764088 
L 247.247929 257.858445 
L 248.333731 257.951814 
L 249.419532 258.04421 
L 250.505333 258.135649 
L 251.591134 258.226144 
L 252.676935 258.315712 
L 253.762736 258.404365 
L 254.848538 258.492117 
L 255.934339 258.578983 
L 257.02014 258.664976 
L 258.105941 258.750109 
L 259.191742 258.834395 
L 260.277543 258.917845 
L 261.363344 259.000474 
L 262.449146 259.082292 
L 263.534947 259.163311 
L 264.620748 259.243544 
L 265.706549 259.323002 
L 266.79235 259.401695 
L 267.878151 259.479635 
L 268.963953 259.556833 
L 270.049754 259.633298 
L 271.135555 259.709043 
L 272.221356 259.784075 
L 273.307157 259.858407 
L 274.392958 259.932046 
L 275.47876 260.005004 
L 276.564561 260.077289 
L 277.650362 260.148911 
L 278.736163 260.219879 
L 279.821964 260.290201 
L 280.907765 260.359887 
L 281.993566 260.428945 
L 283.079368 260.497383 
L 284.165169 260.56521 
L 285.25097 260.632434 
L 286.336771 260.699063 
L 287.422572 260.765105 
L 288.508373 260.830568 
L 289.594175 260.895458 
L 290.679976 260.959784 
L 291.765777 261.023554 
L 292.851578 261.086773 
L 293.937379 261.149449 
L 295.02318 261.21159 
L 296.108981 261.273202 
L 297.194783 261.334291 
L 298.280584 261.394865 
L 299.366385 261.45493 
L 300.452186 261.514492 
L 301.537987 261.573558 
L 302.623788 261.632133 
L 303.70959 261.690224 
L 304.795391 261.747837 
L 305.881192 261.804977 
L 306.966993 261.861651 
L 308.052794 261.917864 
L 309.138595 261.973622 
L 310.224396 262.02893 
L 311.310198 262.083794 
L 312.395999 262.138219 
L 313.4818 262.19221 
L 314.567601 262.245773 
L 315.653402 262.298911 
L 316.739203 262.351632 
L 317.825005 262.403939 
L 318.910806 262.455837 
L 319.996607 262.507331 
L 321.082408 262.558426 
L 322.168209 262.609126 
L 323.25401 262.659437 
L 324.339811 262.709361 
L 325.425613 262.758905 
L 326.511414 262.808071 
L 327.597215 262.856865 
L 328.683016 262.905291 
L 329.768817 262.953353 
L 330.854618 263.001054 
L 331.94042 263.0484 
L 333.026221 263.095393 
L 334.112022 263.142038 
L 335.197823 263.188339 
L 336.283624 263.2343 
L 337.369425 263.279923 
L 338.455227 263.325214 
L 339.541028 263.370175 
L 340.626829 263.41481 
L 341.71263 263.459123 
L 342.798431 263.503117 
L 343.884232 263.546796 
L 344.970033 263.590162 
L 346.055835 263.63322 
L 347.141636 263.675973 
L 348.227437 263.718423 
L 349.313238 263.760574 
L 350.399039 263.80243 
L 351.48484 263.843992 
L 352.570642 263.885265 
L 353.656443 263.926252 
L 354.742244 263.966954 
L 355.828045 264.007376 
L 356.913846 264.04752 
L 357.999647 264.087389 
L 359.085448 264.126986 
L 360.17125 264.166313 
L 361.257051 264.205374 
L 362.342852 264.244171 
L 363.428653 264.282706 
L 364.514454 264.320983 
L 365.600255 264.359004 
L 366.686057 264.396771 
L 367.771858 264.434287 
L 368.857659 264.471555 
L 369.94346 264.508576 
L 371.029261 264.545354 
L 372.115062 264.581891 
L 373.200863 264.618189 
L 374.286665 264.654251 
L 375.372466 264.690078 
L 376.458267 264.725673 
L 377.544068 264.761039 
L 378.629869 264.796177 
L 379.71567 264.83109 
L 380.801472 264.86578 
L 381.887273 264.900249 
L 381.887273 264.160486 
L 381.887273 264.160486 
L 380.801472 264.123654 
L 379.71567 264.086585 
L 378.629869 264.049278 
L 377.544068 264.01173 
L 376.458267 263.973939 
L 375.372466 263.935902 
L 374.286665 263.897618 
L 373.200863 263.859083 
L 372.115062 263.820296 
L 371.029261 263.781253 
L 369.94346 263.741953 
L 368.857659 263.702393 
L 367.771858 263.662569 
L 366.686057 263.62248 
L 365.600255 263.582123 
L 364.514454 263.541495 
L 363.428653 263.500593 
L 362.342852 263.459415 
L 361.257051 263.417957 
L 360.17125 263.376218 
L 359.085448 263.334194 
L 357.999647 263.291881 
L 356.913846 263.249278 
L 355.828045 263.206381 
L 354.742244 263.163187 
L 353.656443 263.119693 
L 352.570642 263.075896 
L 351.48484 263.031793 
L 350.399039 262.98738 
L 349.313238 262.942654 
L 348.227437 262.897612 
L 347.141636 262.85225 
L 346.055835 262.806566 
L 344.970033 262.760555 
L 343.884232 262.714215 
L 342.798431 262.667541 
L 341.71263 262.62053 
L 340.626829 262.573178 
L 339.541028 262.525481 
L 338.455227 262.477437 
L 337.369425 262.42904 
L 336.283624 262.380288 
L 335.197823 262.331176 
L 334.112022 262.281699 
L 333.026221 262.231855 
L 331.94042 262.181639 
L 330.854618 262.131047 
L 329.768817 262.080074 
L 328.683016 262.028716 
L 327.597215 261.97697 
L 326.511414 261.924829 
L 325.425613 261.872291 
L 324.339811 261.81935 
L 323.25401 261.766001 
L 322.168209 261.712241 
L 321.082408 261.658064 
L 319.996607 261.603465 
L 318.910806 261.548439 
L 317.825005 261.492982 
L 316.739203 261.437088 
L 315.653402 261.380752 
L 314.567601 261.323969 
L 313.4818 261.266733 
L 312.395999 261.209039 
L 311.310198 261.150882 
L 310.224396 261.092256 
L 309.138595 261.033155 
L 308.052794 260.973573 
L 306.966993 260.913505 
L 305.881192 260.852944 
L 304.795391 260.791885 
L 303.70959 260.730321 
L 302.623788 260.668246 
L 301.537987 260.605654 
L 300.452186 260.542538 
L 299.366385 260.478891 
L 298.280584 260.414707 
L 297.194783 260.349979 
L 296.108981 260.2847 
L 295.02318 260.218863 
L 293.937379 260.152461 
L 292.851578 260.085486 
L 291.765777 260.017931 
L 290.679976 259.949789 
L 289.594175 259.881051 
L 288.508373 259.81171 
L 287.422572 259.741759 
L 286.336771 259.671188 
L 285.25097 259.599989 
L 284.165169 259.528155 
L 283.079368 259.455676 
L 281.993566 259.382545 
L 280.907765 259.308751 
L 279.821964 259.234286 
L 278.736163 259.159141 
L 277.650362 259.083307 
L 276.564561 259.006773 
L 275.47876 258.929531 
L 274.392958 258.85157 
L 273.307157 258.77288 
L 272.221356 258.693451 
L 271.135555 258.613272 
L 270.049754 258.532334 
L 268.963953 258.450624 
L 267.878151 258.368132 
L 266.79235 258.284847 
L 265.706549 258.200757 
L 264.620748 258.115851 
L 263.534947 258.030116 
L 262.449146 257.94354 
L 261.363344 257.856111 
L 260.277543 257.767816 
L 259.191742 257.678642 
L 258.105941 257.588576 
L 257.02014 257.497605 
L 255.934339 257.405715 
L 254.848538 257.312892 
L 253.762736 257.219121 
L 252.676935 257.124388 
L 251.591134 257.028679 
L 250.505333 256.931977 
L 249.419532 256.834268 
L 248.333731 256.735535 
L 247.247929 256.635763 
L 246.162128 256.534934 
L 245.076327 256.433033 
L 243.990526 256.330042 
L 242.904725 256.225943 
L 241.818924 256.120718 
L 240.733123 256.014349 
L 239.647321 255.906817 
L 238.56152 255.798104 
L 237.475719 255.688188 
L 236.389918 255.577052 
L 235.304117 255.464673 
L 234.218316 255.35103 
L 233.132514 255.236104 
L 232.046713 255.119871 
L 230.960912 255.00231 
L 229.875111 254.883396 
L 228.78931 254.763108 
L 227.703509 254.64142 
L 226.617708 254.518309 
L 225.531906 254.393749 
L 224.446105 254.267715 
L 223.360304 254.14018 
L 222.274503 254.011117 
L 221.188702 253.880498 
L 220.102901 253.748296 
L 219.017099 253.614481 
L 217.931298 253.479023 
L 216.845497 253.341893 
L 215.759696 253.203059 
L 214.673895 253.062488 
L 213.588094 252.920149 
L 212.502292 252.776008 
L 211.416491 252.63003 
L 210.33069 252.48218 
L 209.244889 252.332421 
L 208.159088 252.180717 
L 207.073287 252.027029 
L 205.987486 251.871318 
L 204.901684 251.713545 
L 203.815883 251.553667 
L 202.730082 251.391642 
L 201.644281 251.227427 
L 200.55848 251.060976 
L 199.472679 250.892245 
L 198.386877 250.721186 
L 197.301076 250.54775 
L 196.215275 250.371888 
L 195.129474 250.193548 
L 194.043673 250.012677 
L 192.957872 249.829222 
L 191.872071 249.643126 
L 190.786269 249.454332 
L 189.700468 249.26278 
L 188.614667 249.068411 
L 187.528866 248.871161 
L 186.443065 248.670967 
L 185.357264 248.46776 
L 184.271462 248.261473 
L 183.185661 248.052036 
L 182.09986 247.839376 
L 181.014059 247.623417 
L 179.928258 247.404082 
L 178.842457 247.181292 
L 177.756656 246.954965 
L 176.670854 246.725014 
L 175.585053 246.491353 
L 174.499252 246.253892 
L 173.413451 246.012536 
L 172.32765 245.767188 
L 171.241849 245.517751 
L 170.156047 245.264119 
L 169.070246 245.006186 
L 167.984445 244.743842 
L 166.898644 244.476974 
L 165.812843 244.205462 
L 164.727042 243.929184 
L 163.64124 243.648015 
L 162.555439 243.361822 
L 161.469638 243.070471 
L 160.383837 242.77382 
L 159.298036 242.471723 
L 158.212235 242.164029 
L 157.126434 241.850581 
L 156.040632 241.531216 
L 154.954831 241.205766 
L 153.86903 240.874053 
L 152.783229 240.535897 
L 151.697428 240.191106 
L 150.611627 239.839485 
L 149.525825 239.480828 
L 148.440024 239.114922 
L 147.354223 238.741544 
L 146.268422 238.360464 
L 145.182621 237.97144 
L 144.09682 237.574222 
L 143.011019 237.168549 
L 141.925217 236.754146 
L 140.839416 236.33073 
L 139.753615 235.898002 
L 138.667814 235.455654 
L 137.582013 235.003359 
L 136.496212 234.540779 
L 135.41041 234.067559 
L 134.324609 233.583327 
L 133.238808 233.087695 
L 132.153007 232.580255 
L 131.067206 232.060581 
L 129.981405 231.528223 
L 128.895604 230.982713 
L 127.809802 230.423556 
L 126.724001 229.850235 
L 125.6382 229.262204 
L 124.552399 228.658889 
L 123.466598 228.039687 
L 122.380797 227.403962 
L 121.294995 226.751044 
L 120.209194 226.080225 
L 119.123393 225.39076 
L 118.037592 224.681859 
L 116.951791 223.952689 
L 115.86599 223.202369 
L 114.780189 222.429964 
L 113.694387 221.634486 
L 112.608586 220.814883 
L 111.522785 219.970043 
L 110.436984 219.09878 
L 109.351183 218.199837 
L 108.265382 217.271872 
L 107.17958 216.313457 
L 106.093779 215.323068 
L 105.007978 214.299078 
L 103.922177 213.239747 
L 102.836376 212.143215 
L 101.750575 211.007486 
L 100.664773 209.830419 
L 99.578972 208.609718 
L 98.493171 207.342908 
L 97.40737 206.027329 
L 96.321569 204.660107 
L 95.235768 203.238142 
L 94.149967 201.758078 
L 93.064165 200.21628 
L 91.978364 198.608804 
L 90.892563 196.931362 
L 89.806762 195.179284 
L 88.720961 193.347475 
L 87.63516 191.430367 
L 86.549358 189.421859 
L 85.463557 187.315256 
L 84.377756 185.10319 
L 83.291955 182.777539 
L 82.206154 180.329325 
L 81.120353 177.748596 
L 80.034552 175.024293 
L 78.94875 172.144093 
L 77.862949 169.09422 
L 76.777148 165.859226 
L 75.691347 162.421728 
L 74.605546 158.762098 
L 73.519745 154.858085 
L 72.433943 150.684365 
L 71.348142 146.211988 
L 70.262341 141.40771 
L 69.17654 136.23316 
L 68.090739 130.643816 
L 67.004938 124.587721 
L 65.919137 118.003861 
L 64.833335 110.820106 
L 63.747534 102.95055 
L 62.661733 94.292065 
L 61.575932 84.719756 
L 60.490131 74.080895 
L 59.40433 62.186709 
L 58.318528 48.801089 
L 57.232727 33.62475 
z
" clip-path="url(#pb88a331a4f)" style="fill: #0000ff; fill-opacity: 0.3"/>
   </g>
   <g id="PolyCollection_2">
    <path d="M 58.318528 239.99563 
L 58.318528 242.286237 
L 59.40433 257.00176 
L 60.490131 262.702432 
L 61.575932 265.735453 
L 62.661733 267.619178 
L 63.747534 268.903033 
L 64.833335 269.834278 
L 65.919137 270.540671 
L 67.004938 271.094889 
L 68.090739 271.541331 
L 69.17654 271.908654 
L 70.262341 272.216179 
L 71.348142 272.47741 
L 72.433943 272.702071 
L 73.519745 272.897339 
L 74.605546 273.068627 
L 75.691347 273.220099 
L 76.777148 273.355005 
L 77.862949 273.475921 
L 78.94875 273.584917 
L 80.034552 273.683673 
L 81.120353 273.773567 
L 82.206154 273.855741 
L 83.291955 273.931148 
L 84.377756 274.000591 
L 85.463557 274.064751 
L 86.549358 274.124208 
L 87.63516 274.179462 
L 88.720961 274.230943 
L 89.806762 274.279024 
L 90.892563 274.324032 
L 91.978364 274.366252 
L 93.064165 274.405935 
L 94.149967 274.443304 
L 95.235768 274.478555 
L 96.321569 274.511863 
L 97.40737 274.543384 
L 98.493171 274.573259 
L 99.578972 274.601614 
L 100.664773 274.62856 
L 101.750575 274.654202 
L 102.836376 274.67863 
L 103.922177 274.70193 
L 105.007978 274.724178 
L 106.093779 274.745444 
L 107.17958 274.76579 
L 108.265382 274.785276 
L 109.351183 274.803955 
L 110.436984 274.821876 
L 111.522785 274.839084 
L 112.608586 274.855622 
L 113.694387 274.871527 
L 114.780189 274.886834 
L 115.86599 274.901578 
L 116.951791 274.915789 
L 118.037592 274.929494 
L 119.123393 274.942722 
L 120.209194 274.955495 
L 121.294995 274.967837 
L 122.380797 274.97977 
L 123.466598 274.991314 
L 124.552399 275.002487 
L 125.6382 275.013307 
L 126.724001 275.02379 
L 127.809802 275.033952 
L 128.895604 275.043808 
L 129.981405 275.05337 
L 131.067206 275.062653 
L 132.153007 275.071667 
L 133.238808 275.080426 
L 134.324609 275.088938 
L 135.41041 275.097215 
L 136.496212 275.105266 
L 137.582013 275.1131 
L 138.667814 275.120726 
L 139.753615 275.128153 
L 140.839416 275.135387 
L 141.925217 275.142436 
L 143.011019 275.149307 
L 144.09682 275.156008 
L 145.182621 275.162543 
L 146.268422 275.16892 
L 147.354223 275.175143 
L 148.440024 275.181219 
L 149.525825 275.187152 
L 150.611627 275.192948 
L 151.697428 275.198611 
L 152.783229 275.204146 
L 153.86903 275.209557 
L 154.954831 275.214848 
L 156.040632 275.220023 
L 157.126434 275.225085 
L 158.212235 275.23004 
L 159.298036 275.234889 
L 160.383837 275.239636 
L 161.469638 275.244285 
L 162.555439 275.248838 
L 163.64124 275.253299 
L 164.727042 275.25767 
L 165.812843 275.261953 
L 166.898644 275.266152 
L 167.984445 275.270269 
L 169.070246 275.274307 
L 170.156047 275.278266 
L 171.241849 275.282151 
L 172.32765 275.285962 
L 173.413451 275.289703 
L 174.499252 275.293374 
L 175.585053 275.296978 
L 176.670854 275.300517 
L 177.756656 275.303992 
L 178.842457 275.307406 
L 179.928258 275.310759 
L 181.014059 275.314053 
L 182.09986 275.31729 
L 183.185661 275.320472 
L 184.271462 275.323599 
L 185.357264 275.326673 
L 186.443065 275.329696 
L 187.528866 275.332669 
L 188.614667 275.335593 
L 189.700468 275.338468 
L 190.786269 275.341297 
L 191.872071 275.344081 
L 192.957872 275.34682 
L 194.043673 275.349516 
L 195.129474 275.352169 
L 196.215275 275.354781 
L 197.301076 275.357353 
L 198.386877 275.359885 
L 199.472679 275.362379 
L 200.55848 275.364835 
L 201.644281 275.367254 
L 202.730082 275.369637 
L 203.815883 275.371985 
L 204.901684 275.374298 
L 205.987486 275.376578 
L 207.073287 275.378824 
L 208.159088 275.381039 
L 209.244889 275.383222 
L 210.33069 275.385374 
L 211.416491 275.387495 
L 212.502292 275.389587 
L 213.588094 275.391651 
L 214.673895 275.393685 
L 215.759696 275.395692 
L 216.845497 275.397672 
L 217.931298 275.399625 
L 219.017099 275.401551 
L 220.102901 275.403453 
L 221.188702 275.405329 
L 222.274503 275.40718 
L 223.360304 275.409007 
L 224.446105 275.410811 
L 225.531906 275.412591 
L 226.617708 275.414348 
L 227.703509 275.416084 
L 228.78931 275.417797 
L 229.875111 275.419489 
L 230.960912 275.421159 
L 232.046713 275.422809 
L 233.132514 275.424439 
L 234.218316 275.426048 
L 235.304117 275.427638 
L 236.389918 275.429209 
L 237.475719 275.430761 
L 238.56152 275.432294 
L 239.647321 275.433809 
L 240.733123 275.435306 
L 241.818924 275.436786 
L 242.904725 275.438248 
L 243.990526 275.439694 
L 245.076327 275.441122 
L 246.162128 275.442535 
L 247.247929 275.443931 
L 248.333731 275.445311 
L 249.419532 275.446676 
L 250.505333 275.448026 
L 251.591134 275.44936 
L 252.676935 275.45068 
L 253.762736 275.451985 
L 254.848538 275.453275 
L 255.934339 275.454552 
L 257.02014 275.455815 
L 258.105941 275.457064 
L 259.191742 275.4583 
L 260.277543 275.459522 
L 261.363344 275.460732 
L 262.449146 275.461929 
L 263.534947 275.463113 
L 264.620748 275.464285 
L 265.706549 275.465444 
L 266.79235 275.466592 
L 267.878151 275.467728 
L 268.963953 275.468852 
L 270.049754 275.469965 
L 271.135555 275.471066 
L 272.221356 275.472156 
L 273.307157 275.473236 
L 274.392958 275.474304 
L 275.47876 275.475362 
L 276.564561 275.47641 
L 277.650362 275.477447 
L 278.736163 275.478474 
L 279.821964 275.479491 
L 280.907765 275.480499 
L 281.993566 275.481496 
L 283.079368 275.482484 
L 284.165169 275.483462 
L 285.25097 275.484432 
L 286.336771 275.485392 
L 287.422572 275.486343 
L 288.508373 275.487285 
L 289.594175 275.488218 
L 290.679976 275.489143 
L 291.765777 275.490059 
L 292.851578 275.490966 
L 293.937379 275.491865 
L 295.02318 275.492757 
L 296.108981 275.493639 
L 297.194783 275.494515 
L 298.280584 275.495382 
L 299.366385 275.496241 
L 300.452186 275.497093 
L 301.537987 275.497937 
L 302.623788 275.498774 
L 303.70959 275.499603 
L 304.795391 275.500425 
L 305.881192 275.50124 
L 306.966993 275.502048 
L 308.052794 275.502848 
L 309.138595 275.503642 
L 310.224396 275.50443 
L 311.310198 275.50521 
L 312.395999 275.505984 
L 313.4818 275.506751 
L 314.567601 275.507512 
L 315.653402 275.508266 
L 316.739203 275.509014 
L 317.825005 275.509756 
L 318.910806 275.510492 
L 319.996607 275.511221 
L 321.082408 275.511945 
L 322.168209 275.512663 
L 323.25401 275.513374 
L 324.339811 275.51408 
L 325.425613 275.514781 
L 326.511414 275.515476 
L 327.597215 275.516165 
L 328.683016 275.516848 
L 329.768817 275.517527 
L 330.854618 275.518199 
L 331.94042 275.518867 
L 333.026221 275.519529 
L 334.112022 275.520186 
L 335.197823 275.520838 
L 336.283624 275.521485 
L 337.369425 275.522127 
L 338.455227 275.522764 
L 339.541028 275.523396 
L 340.626829 275.524023 
L 341.71263 275.524645 
L 342.798431 275.525263 
L 343.884232 275.525876 
L 344.970033 275.526484 
L 346.055835 275.527088 
L 347.141636 275.527687 
L 348.227437 275.528282 
L 349.313238 275.528873 
L 350.399039 275.529459 
L 351.48484 275.53004 
L 352.570642 275.530618 
L 353.656443 275.531191 
L 354.742244 275.53176 
L 355.828045 275.532325 
L 356.913846 275.532886 
L 357.999647 275.533443 
L 359.085448 275.533995 
L 360.17125 275.534544 
L 361.257051 275.535089 
L 362.342852 275.53563 
L 363.428653 275.536167 
L 364.514454 275.536701 
L 365.600255 275.53723 
L 366.686057 275.537756 
L 367.771858 275.538278 
L 368.857659 275.538797 
L 369.94346 275.539312 
L 371.029261 275.539823 
L 372.115062 275.540331 
L 373.200863 275.540836 
L 374.286665 275.541337 
L 375.372466 275.541834 
L 376.458267 275.542329 
L 377.544068 275.542819 
L 378.629869 275.543307 
L 379.71567 275.543791 
L 380.801472 275.544272 
L 381.887273 275.54475 
L 381.887273 275.534976 
L 381.887273 275.534976 
L 380.801472 275.534466 
L 379.71567 275.533952 
L 378.629869 275.533434 
L 377.544068 275.532913 
L 376.458267 275.532389 
L 375.372466 275.531861 
L 374.286665 275.531329 
L 373.200863 275.530793 
L 372.115062 275.530254 
L 371.029261 275.529712 
L 369.94346 275.529165 
L 368.857659 275.528615 
L 367.771858 275.528061 
L 366.686057 275.527503 
L 365.600255 275.526941 
L 364.514454 275.526375 
L 363.428653 275.525805 
L 362.342852 275.525231 
L 361.257051 275.524653 
L 360.17125 275.52407 
L 359.085448 275.523484 
L 357.999647 275.522893 
L 356.913846 275.522298 
L 355.828045 275.521699 
L 354.742244 275.521095 
L 353.656443 275.520487 
L 352.570642 275.519875 
L 351.48484 275.519258 
L 350.399039 275.518636 
L 349.313238 275.51801 
L 348.227437 275.517379 
L 347.141636 275.516743 
L 346.055835 275.516103 
L 344.970033 275.515458 
L 343.884232 275.514808 
L 342.798431 275.514153 
L 341.71263 275.513493 
L 340.626829 275.512828 
L 339.541028 275.512157 
L 338.455227 275.511482 
L 337.369425 275.510801 
L 336.283624 275.510116 
L 335.197823 275.509424 
L 334.112022 275.508728 
L 333.026221 275.508026 
L 331.94042 275.507318 
L 330.854618 275.506605 
L 329.768817 275.505886 
L 328.683016 275.505161 
L 327.597215 275.50443 
L 326.511414 275.503694 
L 325.425613 275.502952 
L 324.339811 275.502203 
L 323.25401 275.501449 
L 322.168209 275.500688 
L 321.082408 275.499921 
L 319.996607 275.499148 
L 318.910806 275.498368 
L 317.825005 275.497582 
L 316.739203 275.496789 
L 315.653402 275.49599 
L 314.567601 275.495184 
L 313.4818 275.494371 
L 312.395999 275.493551 
L 311.310198 275.492724 
L 310.224396 275.49189 
L 309.138595 275.491049 
L 308.052794 275.490201 
L 306.966993 275.489345 
L 305.881192 275.488482 
L 304.795391 275.487611 
L 303.70959 275.486733 
L 302.623788 275.485847 
L 301.537987 275.484953 
L 300.452186 275.484051 
L 299.366385 275.48314 
L 298.280584 275.482222 
L 297.194783 275.481296 
L 296.108981 275.48036 
L 295.02318 275.479417 
L 293.937379 275.478465 
L 292.851578 275.477504 
L 291.765777 275.476534 
L 290.679976 275.475555 
L 289.594175 275.474567 
L 288.508373 275.47357 
L 287.422572 275.472563 
L 286.336771 275.471547 
L 285.25097 275.470521 
L 284.165169 275.469486 
L 283.079368 275.46844 
L 281.993566 275.467384 
L 280.907765 275.466318 
L 279.821964 275.465242 
L 278.736163 275.464155 
L 277.650362 275.463058 
L 276.564561 275.461949 
L 275.47876 275.46083 
L 274.392958 275.459699 
L 273.307157 275.458558 
L 272.221356 275.457404 
L 271.135555 275.456239 
L 270.049754 275.455062 
L 268.963953 275.453873 
L 267.878151 275.452672 
L 266.79235 275.451458 
L 265.706549 275.450232 
L 264.620748 275.448992 
L 263.534947 275.44774 
L 262.449146 275.446475 
L 261.363344 275.445196 
L 260.277543 275.443903 
L 259.191742 275.442597 
L 258.105941 275.441277 
L 257.02014 275.439942 
L 255.934339 275.438592 
L 254.848538 275.437228 
L 253.762736 275.435849 
L 252.676935 275.434454 
L 251.591134 275.433044 
L 250.505333 275.431618 
L 249.419532 275.430176 
L 248.333731 275.428718 
L 247.247929 275.427243 
L 246.162128 275.425751 
L 245.076327 275.424242 
L 243.990526 275.422715 
L 242.904725 275.421171 
L 241.818924 275.419608 
L 240.733123 275.418027 
L 239.647321 275.416427 
L 238.56152 275.414808 
L 237.475719 275.41317 
L 236.389918 275.411511 
L 235.304117 275.409833 
L 234.218316 275.408134 
L 233.132514 275.406414 
L 232.046713 275.404673 
L 230.960912 275.402909 
L 229.875111 275.401124 
L 228.78931 275.399317 
L 227.703509 275.397486 
L 226.617708 275.395632 
L 225.531906 275.393754 
L 224.446105 275.391851 
L 223.360304 275.389924 
L 222.274503 275.387972 
L 221.188702 275.385993 
L 220.102901 275.383989 
L 219.017099 275.381957 
L 217.931298 275.379898 
L 216.845497 275.377811 
L 215.759696 275.375696 
L 214.673895 275.373551 
L 213.588094 275.371377 
L 212.502292 275.369173 
L 211.416491 275.366937 
L 210.33069 275.36467 
L 209.244889 275.36237 
L 208.159088 275.360038 
L 207.073287 275.357672 
L 205.987486 275.355271 
L 204.901684 275.352835 
L 203.815883 275.350363 
L 202.730082 275.347854 
L 201.644281 275.345308 
L 200.55848 275.342723 
L 199.472679 275.340098 
L 198.386877 275.337434 
L 197.301076 275.334728 
L 196.215275 275.33198 
L 195.129474 275.329189 
L 194.043673 275.326353 
L 192.957872 275.323472 
L 191.872071 275.320545 
L 190.786269 275.317571 
L 189.700468 275.314548 
L 188.614667 275.311475 
L 187.528866 275.308351 
L 186.443065 275.305174 
L 185.357264 275.301944 
L 184.271462 275.298659 
L 183.185661 275.295317 
L 182.09986 275.291917 
L 181.014059 275.288458 
L 179.928258 275.284938 
L 178.842457 275.281355 
L 177.756656 275.277707 
L 176.670854 275.273994 
L 175.585053 275.270212 
L 174.499252 275.266361 
L 173.413451 275.262438 
L 172.32765 275.258441 
L 171.241849 275.254368 
L 170.156047 275.250217 
L 169.070246 275.245986 
L 167.984445 275.241672 
L 166.898644 275.237273 
L 165.812843 275.232786 
L 164.727042 275.228208 
L 163.64124 275.223538 
L 162.555439 275.218771 
L 161.469638 275.213906 
L 160.383837 275.208938 
L 159.298036 275.203865 
L 158.212235 275.198683 
L 157.126434 275.193389 
L 156.040632 275.187979 
L 154.954831 275.182449 
L 153.86903 275.176796 
L 152.783229 275.171014 
L 151.697428 275.165099 
L 150.611627 275.159048 
L 149.525825 275.152855 
L 148.440024 275.146515 
L 147.354223 275.140022 
L 146.268422 275.133372 
L 145.182621 275.126558 
L 144.09682 275.119574 
L 143.011019 275.112414 
L 141.925217 275.105072 
L 140.839416 275.097539 
L 139.753615 275.089809 
L 138.667814 275.081873 
L 137.582013 275.073724 
L 136.496212 275.065353 
L 135.41041 275.05675 
L 134.324609 275.047905 
L 133.238808 275.038809 
L 132.153007 275.02945 
L 131.067206 275.019817 
L 129.981405 275.009898 
L 128.895604 274.99968 
L 127.809802 274.989148 
L 126.724001 274.978289 
L 125.6382 274.967087 
L 124.552399 274.955525 
L 123.466598 274.943586 
L 122.380797 274.931251 
L 121.294995 274.918499 
L 120.209194 274.905311 
L 119.123393 274.891661 
L 118.037592 274.877527 
L 116.951791 274.862881 
L 115.86599 274.847696 
L 114.780189 274.831941 
L 113.694387 274.815584 
L 112.608586 274.798588 
L 111.522785 274.780917 
L 110.436984 274.762528 
L 109.351183 274.743378 
L 108.265382 274.723418 
L 107.17958 274.702596 
L 106.093779 274.680854 
L 105.007978 274.65813 
L 103.922177 274.634357 
L 102.836376 274.609459 
L 101.750575 274.583355 
L 100.664773 274.555955 
L 99.578972 274.52716 
L 98.493171 274.496862 
L 97.40737 274.464938 
L 96.321569 274.431255 
L 95.235768 274.395662 
L 94.149967 274.357994 
L 93.064165 274.318063 
L 91.978364 274.275658 
L 90.892563 274.230543 
L 89.806762 274.182448 
L 88.720961 274.131069 
L 87.63516 274.076058 
L 86.549358 274.017015 
L 85.463557 273.95348 
L 84.377756 273.88492 
L 83.291955 273.810715 
L 82.206154 273.730136 
L 81.120353 273.642327 
L 80.034552 273.546269 
L 78.94875 273.44074 
L 77.862949 273.324269 
L 76.777148 273.19506 
L 75.691347 273.050903 
L 74.605546 272.889043 
L 73.519745 272.706008 
L 72.433943 272.497349 
L 71.348142 272.257282 
L 70.262341 271.978135 
L 69.17654 271.64952 
L 68.090739 271.257007 
L 67.004938 270.779948 
L 65.919137 270.187723 
L 64.833335 269.432886 
L 63.747534 268.437777 
L 62.661733 267.065877 
L 61.575932 265.052968 
L 60.490131 261.811946 
L 59.40433 255.720328 
L 58.318528 239.99563 
z
" clip-path="url(#pb88a331a4f)" style="fill: #008000; fill-opacity: 0.3"/>
   </g>
   <g id="matplotlib.axis_1">
    <g id="xtick_1">
     <g id="line2d_1">
      <path d="M 57.232727 287.64075 
L 57.232727 21.52875 
" clip-path="url(#pb88a331a4f)" style="fill: none; stroke: #b0b0b0; stroke-width: 0.8; stroke-linecap: square"/>
     </g>
     <g id="line2d_2">
      <defs>
       <path id="m2a8d65cc25" d="M 0 0 
L 0 3.5 
" style="stroke: #000000; stroke-width: 0.8"/>
      </defs>
      <g>
       <use xlink:href="#m2a8d65cc25" x="57.232727" y="287.64075" style="stroke: #000000; stroke-width: 0.8"/>
      </g>
     </g>
     <g id="text_1">
      <!-- $\mathdefault{0}$ -->
      <g transform="translate(54.732727 301.581375) scale(0.1 -0.1)">
       <defs>
        <path id="LMRoman10-Regular-30" d="M 2944 2048 
C 2944 2560 2912 3072 2688 3546 
C 2394 4160 1869 4262 1600 4262 
C 1216 4262 749 4096 486 3501 
C 282 3059 250 2560 250 2048 
C 250 1568 275 992 538 506 
C 813 -13 1280 -141 1594 -141 
C 1939 -141 2426 -6 2707 602 
C 2912 1043 2944 1542 2944 2048 
z
M 2413 2125 
C 2413 1645 2413 1210 2342 800 
C 2246 192 1882 0 1594 0 
C 1344 0 966 160 851 774 
C 781 1158 781 1747 781 2125 
C 781 2534 781 2957 832 3302 
C 954 4064 1434 4122 1594 4122 
C 1805 4122 2227 4006 2349 3373 
C 2413 3014 2413 2528 2413 2125 
z
" transform="scale(0.015625)"/>
       </defs>
       <use xlink:href="#LMRoman10-Regular-30" transform="translate(0 0.40625)"/>
      </g>
     </g>
    </g>
    <g id="xtick_2">
     <g id="line2d_3">
      <path d="M 122.163636 287.64075 
L 122.163636 21.52875 
" clip-path="url(#pb88a331a4f)" style="fill: none; stroke: #b0b0b0; stroke-width: 0.8; stroke-linecap: square"/>
     </g>
     <g id="line2d_4">
      <g>
       <use xlink:href="#m2a8d65cc25" x="122.163636" y="287.64075" style="stroke: #000000; stroke-width: 0.8"/>
      </g>
     </g>
     <g id="text_2">
      <!-- $\mathdefault{2}$ -->
      <g transform="translate(119.663636 301.581375) scale(0.1 -0.1)">
       <defs>
        <path id="LMRoman10-Regular-32" d="M 2874 1114 
L 2714 1114 
C 2682 922 2637 640 2573 544 
C 2528 493 2106 493 1965 493 
L 813 493 
L 1491 1152 
C 2490 2035 2874 2381 2874 3021 
C 2874 3750 2298 4262 1517 4262 
C 794 4262 320 3674 320 3104 
C 320 2746 640 2746 659 2746 
C 768 2746 992 2822 992 3085 
C 992 3251 877 3418 653 3418 
C 602 3418 589 3418 570 3411 
C 717 3827 1062 4064 1434 4064 
C 2016 4064 2291 3546 2291 3021 
C 2291 2509 1971 2003 1619 1606 
L 390 237 
C 320 166 320 154 320 0 
L 2694 0 
L 2874 1114 
z
" transform="scale(0.015625)"/>
       </defs>
       <use xlink:href="#LMRoman10-Regular-32" transform="translate(0 0.40625)"/>
      </g>
     </g>
    </g>
    <g id="xtick_3">
     <g id="line2d_5">
      <path d="M 187.094545 287.64075 
L 187.094545 21.52875 
" clip-path="url(#pb88a331a4f)" style="fill: none; stroke: #b0b0b0; stroke-width: 0.8; stroke-linecap: square"/>
     </g>
     <g id="line2d_6">
      <g>
       <use xlink:href="#m2a8d65cc25" x="187.094545" y="287.64075" style="stroke: #000000; stroke-width: 0.8"/>
      </g>
     </g>
     <g id="text_3">
      <!-- $\mathdefault{4}$ -->
      <g transform="translate(184.594545 301.581375) scale(0.1 -0.1)">
       <defs>
        <path id="LMRoman10-Regular-34" d="M 3014 1056 
L 3014 1254 
L 2374 1254 
L 2374 4166 
C 2374 4294 2374 4333 2272 4333 
C 2214 4333 2195 4333 2144 4256 
L 179 1254 
L 179 1056 
L 1882 1056 
L 1882 499 
C 1882 269 1869 198 1395 198 
L 1261 198 
L 1261 0 
C 1523 19 1856 19 2125 19 
C 2394 19 2733 19 2995 0 
L 2995 198 
L 2861 198 
C 2387 198 2374 269 2374 499 
L 2374 1056 
L 3014 1056 
z
M 1920 1254 
L 358 1254 
L 1920 3642 
L 1920 1254 
z
" transform="scale(0.015625)"/>
       </defs>
       <use xlink:href="#LMRoman10-Regular-34" transform="translate(0 0.296875)"/>
      </g>
     </g>
    </g>
    <g id="xtick_4">
     <g id="line2d_7">
      <path d="M 252.025455 287.64075 
L 252.025455 21.52875 
" clip-path="url(#pb88a331a4f)" style="fill: none; stroke: #b0b0b0; stroke-width: 0.8; stroke-linecap: square"/>
     </g>
     <g id="line2d_8">
      <g>
       <use xlink:href="#m2a8d65cc25" x="252.025455" y="287.64075" style="stroke: #000000; stroke-width: 0.8"/>
      </g>
     </g>
     <g id="text_4">
      <!-- $\mathdefault{6}$ -->
      <g transform="translate(249.525455 301.581375) scale(0.1 -0.1)">
       <defs>
        <path id="LMRoman10-Regular-36" d="M 2925 1306 
C 2925 2118 2355 2733 1645 2733 
C 1210 2733 973 2406 845 2099 
L 845 2253 
C 845 3872 1638 4102 1965 4102 
C 2118 4102 2387 4064 2528 3846 
C 2432 3846 2176 3846 2176 3558 
C 2176 3360 2330 3264 2470 3264 
C 2573 3264 2765 3322 2765 3571 
C 2765 3955 2483 4262 1952 4262 
C 1133 4262 269 3437 269 2022 
C 269 314 1011 -141 1606 -141 
C 2317 -141 2925 461 2925 1306 
z
M 2349 1312 
C 2349 1005 2349 685 2240 454 
C 2048 70 1754 38 1606 38 
C 1203 38 1011 422 973 518 
C 858 819 858 1331 858 1446 
C 858 1946 1062 2586 1638 2586 
C 1741 2586 2035 2586 2234 2189 
C 2349 1952 2349 1626 2349 1312 
z
" transform="scale(0.015625)"/>
       </defs>
       <use xlink:href="#LMRoman10-Regular-36" transform="translate(0 0.40625)"/>
      </g>
     </g>
    </g>
    <g id="xtick_5">
     <g id="line2d_9">
      <path d="M 316.956364 287.64075 
L 316.956364 21.52875 
" clip-path="url(#pb88a331a4f)" style="fill: none; stroke: #b0b0b0; stroke-width: 0.8; stroke-linecap: square"/>
     </g>
     <g id="line2d_10">
      <g>
       <use xlink:href="#m2a8d65cc25" x="316.956364" y="287.64075" style="stroke: #000000; stroke-width: 0.8"/>
      </g>
     </g>
     <g id="text_5">
      <!-- $\mathdefault{8}$ -->
      <g transform="translate(314.456364 301.581375) scale(0.1 -0.1)">
       <defs>
        <path id="LMRoman10-Regular-38" d="M 2925 1075 
C 2925 1306 2854 1594 2611 1862 
C 2490 1997 2387 2061 1978 2317 
C 2438 2554 2752 2886 2752 3309 
C 2752 3898 2182 4262 1600 4262 
C 960 4262 442 3789 442 3194 
C 442 3078 454 2790 723 2490 
C 794 2413 1030 2253 1190 2144 
C 819 1958 269 1600 269 966 
C 269 288 922 -141 1594 -141 
C 2317 -141 2925 390 2925 1075 
z
M 2470 3309 
C 2470 2944 2221 2637 1837 2413 
L 1043 2925 
C 749 3117 723 3334 723 3443 
C 723 3834 1139 4102 1594 4102 
C 2061 4102 2470 3770 2470 3309 
z
M 2605 845 
C 2605 371 2125 38 1600 38 
C 1050 38 589 435 589 966 
C 589 1338 794 1747 1338 2048 
L 2125 1549 
C 2304 1427 2605 1235 2605 845 
z
" transform="scale(0.015625)"/>
       </defs>
       <use xlink:href="#LMRoman10-Regular-38" transform="translate(0 0.40625)"/>
      </g>
     </g>
    </g>
    <g id="xtick_6">
     <g id="line2d_11">
      <path d="M 381.887273 287.64075 
L 381.887273 21.52875 
" clip-path="url(#pb88a331a4f)" style="fill: none; stroke: #b0b0b0; stroke-width: 0.8; stroke-linecap: square"/>
     </g>
     <g id="line2d_12">
      <g>
       <use xlink:href="#m2a8d65cc25" x="381.887273" y="287.64075" style="stroke: #000000; stroke-width: 0.8"/>
      </g>
     </g>
     <g id="text_6">
      <!-- $\mathdefault{10}$ -->
      <g transform="translate(376.887273 301.581375) scale(0.1 -0.1)">
       <defs>
        <path id="LMRoman10-Regular-31" d="M 2682 0 
L 2682 198 
L 2477 198 
C 1901 198 1882 269 1882 506 
L 1882 4096 
C 1882 4250 1882 4262 1734 4262 
C 1338 3853 774 3853 570 3853 
L 570 3654 
C 698 3654 1075 3654 1408 3821 
L 1408 506 
C 1408 275 1389 198 813 198 
L 608 198 
L 608 0 
C 832 19 1389 19 1645 19 
C 1901 19 2458 19 2682 0 
z
" transform="scale(0.015625)"/>
       </defs>
       <use xlink:href="#LMRoman10-Regular-31" transform="translate(0 0.40625)"/>
       <use xlink:href="#LMRoman10-Regular-30" transform="translate(49.999985 0.40625)"/>
      </g>
     </g>
    </g>
    <g id="text_7">
     <!-- Background noise (photons) -->
     <g transform="translate(158.025625 315.022) scale(0.1 -0.1)">
      <defs>
       <path id="LMRoman10-Regular-42" d="M 4166 1171 
C 4166 1728 3642 2208 2931 2285 
C 3552 2406 3994 2816 3994 3290 
C 3994 3846 3405 4371 2573 4371 
L 230 4371 
L 230 4173 
L 384 4173 
C 877 4173 890 4102 890 3872 
L 890 499 
C 890 269 877 198 384 198 
L 230 198 
L 230 0 
L 2739 0 
C 3590 0 4166 570 4166 1171 
z
M 3373 3290 
C 3373 2880 3059 2342 2349 2342 
L 1421 2342 
L 1421 3917 
C 1421 4128 1434 4173 1734 4173 
L 2528 4173 
C 3149 4173 3373 3629 3373 3290 
z
M 3526 1178 
C 3526 723 3194 198 2534 198 
L 1734 198 
C 1434 198 1421 243 1421 454 
L 1421 2202 
L 2624 2202 
C 3258 2202 3526 1606 3526 1178 
z
" transform="scale(0.015625)"/>
       <path id="LMRoman10-Regular-61" d="M 3091 570 
L 3091 928 
L 2931 928 
L 2931 570 
C 2931 198 2771 160 2701 160 
C 2490 160 2464 448 2464 480 
L 2464 1760 
C 2464 2029 2464 2278 2234 2515 
C 1984 2765 1664 2867 1357 2867 
C 832 2867 390 2566 390 2144 
C 390 1952 518 1843 685 1843 
C 864 1843 979 1971 979 2138 
C 979 2214 947 2426 653 2432 
C 826 2656 1139 2726 1344 2726 
C 1658 2726 2022 2477 2022 1907 
L 2022 1670 
C 1696 1651 1248 1632 845 1440 
C 365 1222 205 890 205 608 
C 205 90 826 -70 1229 -70 
C 1651 -70 1946 186 2067 486 
C 2093 230 2266 -38 2566 -38 
C 2701 -38 3091 51 3091 570 
z
M 2022 896 
C 2022 288 1562 70 1274 70 
C 960 70 698 294 698 614 
C 698 966 966 1498 2022 1536 
L 2022 896 
z
" transform="scale(0.015625)"/>
       <path id="LMRoman10-Regular-63" d="M 2656 762 
C 2656 826 2592 826 2573 826 
C 2515 826 2502 800 2490 762 
C 2304 166 1888 90 1651 90 
C 1312 90 749 365 749 1395 
C 749 2438 1274 2707 1613 2707 
C 1670 2707 2074 2701 2298 2470 
C 2035 2451 1997 2259 1997 2176 
C 1997 2010 2112 1882 2291 1882 
C 2458 1882 2586 1990 2586 2182 
C 2586 2618 2099 2867 1606 2867 
C 806 2867 218 2176 218 1382 
C 218 563 851 -70 1594 -70 
C 2451 -70 2656 698 2656 762 
z
" transform="scale(0.015625)"/>
       <path id="LMRoman10-Regular-6b" d="M 3270 0 
L 3270 198 
C 3034 198 2893 198 2650 538 
L 1837 1683 
C 1830 1696 1798 1734 1798 1754 
C 1798 1779 2253 2163 2317 2214 
C 2720 2541 2989 2554 3123 2560 
L 3123 2758 
C 2938 2739 2854 2739 2675 2739 
C 2445 2739 2048 2752 1958 2758 
L 1958 2560 
C 2080 2554 2144 2483 2144 2400 
C 2144 2272 2054 2195 2003 2150 
L 1101 1370 
L 1101 4442 
L 179 4371 
L 179 4173 
C 627 4173 678 4128 678 3814 
L 678 486 
C 678 198 608 198 179 198 
L 179 0 
L 877 19 
L 1581 0 
L 1581 198 
C 1152 198 1082 198 1082 486 
L 1082 1146 
L 1491 1498 
C 1984 819 2253 461 2253 346 
C 2253 224 2144 198 2022 198 
L 2022 0 
L 2714 19 
C 2899 19 3085 13 3270 0 
z
" transform="scale(0.015625)"/>
       <path id="LMRoman10-Regular-67" d="M 3104 2586 
C 3104 2694 3027 2899 2778 2899 
C 2650 2899 2368 2861 2099 2598 
C 1830 2810 1562 2829 1421 2829 
C 826 2829 384 2387 384 1894 
C 384 1613 525 1370 685 1235 
C 602 1139 486 928 486 704 
C 486 506 570 262 768 134 
C 384 26 179 -250 179 -506 
C 179 -966 813 -1318 1594 -1318 
C 2349 -1318 3014 -992 3014 -493 
C 3014 -269 2925 58 2598 237 
C 2259 416 1888 416 1498 416 
C 1338 416 1062 416 1018 422 
C 813 448 678 646 678 851 
C 678 877 678 1024 787 1152 
C 1037 973 1299 954 1421 954 
C 2016 954 2458 1395 2458 1888 
C 2458 2125 2355 2362 2195 2509 
C 2426 2726 2656 2758 2771 2758 
C 2771 2758 2816 2758 2835 2752 
C 2765 2726 2733 2656 2733 2579 
C 2733 2470 2816 2394 2918 2394 
C 2982 2394 3104 2438 3104 2586 
z
M 1978 1894 
C 1978 1722 1971 1517 1875 1357 
C 1824 1280 1677 1101 1421 1101 
C 864 1101 864 1741 864 1888 
C 864 2061 870 2266 966 2426 
C 1018 2502 1165 2682 1421 2682 
C 1978 2682 1978 2042 1978 1894 
z
M 2682 -506 
C 2682 -851 2227 -1171 1600 -1171 
C 954 -1171 512 -845 512 -506 
C 512 -211 755 26 1037 45 
L 1414 45 
C 1965 45 2682 45 2682 -506 
z
" transform="scale(0.015625)"/>
       <path id="LMRoman10-Regular-72" d="M 2330 2438 
C 2330 2643 2131 2829 1856 2829 
C 1389 2829 1158 2400 1069 2125 
L 1069 2829 
L 179 2758 
L 179 2560 
C 627 2560 678 2515 678 2202 
L 678 486 
C 678 198 608 198 179 198 
L 179 0 
L 909 19 
C 1165 19 1466 19 1722 0 
L 1722 198 
L 1587 198 
C 1114 198 1101 269 1101 499 
L 1101 1485 
C 1101 2118 1370 2688 1856 2688 
C 1901 2688 1914 2688 1926 2682 
C 1907 2675 1779 2598 1779 2432 
C 1779 2253 1914 2157 2054 2157 
C 2170 2157 2330 2234 2330 2438 
z
" transform="scale(0.015625)"/>
       <path id="LMRoman10-Regular-6f" d="M 3014 1370 
C 3014 2189 2374 2867 1600 2867 
C 800 2867 179 2170 179 1370 
C 179 544 845 -70 1594 -70 
C 2368 -70 3014 557 3014 1370 
z
M 2483 1421 
C 2483 1190 2483 845 2342 563 
C 2202 275 1920 90 1600 90 
C 1325 90 1043 224 870 518 
C 710 800 710 1190 710 1421 
C 710 1670 710 2016 864 2298 
C 1037 2592 1338 2726 1594 2726 
C 1875 2726 2150 2586 2317 2310 
C 2483 2035 2483 1664 2483 1421 
z
" transform="scale(0.015625)"/>
       <path id="LMRoman10-Regular-75" d="M 3424 0 
L 3424 198 
C 2976 198 2925 243 2925 557 
L 2925 2829 
L 1984 2758 
L 1984 2560 
C 2432 2560 2483 2515 2483 2202 
L 2483 1062 
C 2483 506 2176 70 1709 70 
C 1171 70 1146 371 1146 704 
L 1146 2829 
L 205 2758 
L 205 2560 
C 704 2560 704 2541 704 1971 
L 704 1011 
C 704 512 704 -70 1677 -70 
C 2035 -70 2317 109 2502 506 
L 2502 -70 
L 3424 0 
z
" transform="scale(0.015625)"/>
       <path id="LMRoman10-Regular-6e" d="M 3424 0 
L 3424 198 
C 3091 198 2931 198 2925 390 
L 2925 1613 
C 2925 2163 2925 2362 2726 2592 
C 2637 2701 2426 2829 2054 2829 
C 1587 2829 1286 2554 1107 2157 
L 1107 2829 
L 205 2758 
L 205 2560 
C 653 2560 704 2515 704 2202 
L 704 486 
C 704 198 634 198 205 198 
L 205 0 
L 928 19 
L 1645 0 
L 1645 198 
C 1216 198 1146 198 1146 486 
L 1146 1664 
C 1146 2330 1600 2688 2010 2688 
C 2413 2688 2483 2342 2483 1978 
L 2483 486 
C 2483 198 2413 198 1984 198 
L 1984 0 
L 2707 19 
L 3424 0 
z
" transform="scale(0.015625)"/>
       <path id="LMRoman10-Regular-64" d="M 3373 0 
L 3373 198 
C 2925 198 2874 243 2874 557 
L 2874 4442 
L 1952 4371 
L 1952 4173 
C 2400 4173 2451 4128 2451 3814 
L 2451 2432 
C 2266 2662 1990 2829 1645 2829 
C 890 2829 218 2202 218 1376 
C 218 563 845 -70 1574 -70 
C 1984 -70 2272 147 2432 352 
L 2432 -70 
L 3373 0 
z
M 2432 755 
C 2432 640 2432 627 2362 518 
C 2170 211 1882 70 1606 70 
C 1318 70 1088 237 934 480 
C 768 742 749 1107 749 1370 
C 749 1606 762 1990 947 2278 
C 1082 2477 1325 2688 1670 2688 
C 1894 2688 2163 2592 2362 2304 
C 2432 2195 2432 2182 2432 2067 
L 2432 755 
z
" transform="scale(0.015625)"/>
       <path id="LMRoman10-Regular-20" transform="scale(0.015625)"/>
       <path id="LMRoman10-Regular-69" d="M 1581 0 
L 1581 198 
C 1158 198 1133 230 1133 480 
L 1133 2829 
L 237 2758 
L 237 2560 
C 653 2560 710 2522 710 2208 
L 710 486 
C 710 198 640 198 211 198 
L 211 0 
L 915 19 
C 1139 19 1363 6 1581 0 
z
M 1229 3866 
C 1229 4038 1082 4205 890 4205 
C 672 4205 544 4026 544 3866 
C 544 3693 691 3526 883 3526 
C 1101 3526 1229 3706 1229 3866 
z
" transform="scale(0.015625)"/>
       <path id="LMRoman10-Regular-73" d="M 2304 819 
C 2304 1158 2112 1350 2035 1427 
C 1824 1632 1574 1683 1306 1734 
C 947 1805 518 1888 518 2259 
C 518 2483 685 2746 1235 2746 
C 1939 2746 1971 2170 1984 1971 
C 1990 1914 2061 1914 2061 1914 
C 2144 1914 2144 1946 2144 2067 
L 2144 2714 
C 2144 2822 2144 2867 2074 2867 
C 2042 2867 2029 2867 1946 2790 
C 1926 2765 1862 2707 1837 2688 
C 1594 2867 1331 2867 1235 2867 
C 454 2867 211 2438 211 2080 
C 211 1856 314 1677 486 1536 
C 691 1370 870 1331 1331 1242 
C 1472 1216 1997 1114 1997 653 
C 1997 326 1773 70 1274 70 
C 736 70 506 435 384 979 
C 365 1062 358 1088 294 1088 
C 211 1088 211 1043 211 928 
L 211 83 
C 211 -26 211 -70 282 -70 
C 314 -70 320 -64 442 58 
C 454 70 454 83 570 205 
C 851 -64 1139 -70 1274 -70 
C 2010 -70 2304 358 2304 819 
z
" transform="scale(0.015625)"/>
       <path id="LMRoman10-Regular-65" d="M 2656 762 
C 2656 826 2605 838 2573 838 
C 2515 838 2502 800 2490 749 
C 2266 90 1690 90 1626 90 
C 1306 90 1050 282 902 518 
C 710 826 710 1248 710 1478 
L 2496 1478 
C 2637 1478 2656 1478 2656 1613 
C 2656 2246 2310 2867 1510 2867 
C 768 2867 179 2208 179 1408 
C 179 550 851 -70 1587 -70 
C 2368 -70 2656 640 2656 762 
z
M 2234 1613 
L 717 1613 
C 755 2566 1293 2726 1510 2726 
C 2170 2726 2234 1862 2234 1613 
z
" transform="scale(0.015625)"/>
       <path id="LMRoman10-Regular-28" d="M 2118 -1536 
C 2118 -1517 2118 -1504 2010 -1395 
C 1210 -589 1005 621 1005 1600 
C 1005 2714 1248 3827 2035 4627 
C 2118 4704 2118 4717 2118 4736 
C 2118 4781 2093 4800 2054 4800 
C 1990 4800 1414 4365 1037 3552 
C 710 2848 634 2138 634 1600 
C 634 1101 704 326 1056 -397 
C 1440 -1184 1990 -1600 2054 -1600 
C 2093 -1600 2118 -1581 2118 -1536 
z
" transform="scale(0.015625)"/>
       <path id="LMRoman10-Regular-70" d="M 3334 1382 
C 3334 2195 2714 2829 1997 2829 
C 1498 2829 1229 2547 1101 2406 
L 1101 2829 
L 179 2758 
L 179 2560 
C 634 2560 678 2522 678 2240 
L 678 -755 
C 678 -1043 608 -1043 179 -1043 
L 179 -1242 
L 896 -1222 
L 1619 -1242 
L 1619 -1043 
C 1190 -1043 1120 -1043 1120 -755 
L 1120 320 
L 1120 378 
C 1152 275 1421 -70 1907 -70 
C 2669 -70 3334 557 3334 1382 
z
M 2803 1382 
C 2803 608 2355 70 1882 70 
C 1626 70 1382 198 1210 461 
C 1120 595 1120 602 1120 730 
L 1120 2157 
C 1306 2483 1619 2669 1946 2669 
C 2413 2669 2803 2106 2803 1382 
z
" transform="scale(0.015625)"/>
       <path id="LMRoman10-Regular-68" d="M 3424 0 
L 3424 198 
C 3091 198 2931 198 2925 390 
L 2925 1613 
C 2925 2163 2925 2362 2726 2592 
C 2637 2701 2426 2829 2054 2829 
C 1517 2829 1235 2445 1133 2214 
L 1126 2214 
L 1126 4442 
L 205 4371 
L 205 4173 
C 653 4173 704 4128 704 3814 
L 704 486 
C 704 198 634 198 205 198 
L 205 0 
L 928 19 
L 1645 0 
L 1645 198 
C 1216 198 1146 198 1146 486 
L 1146 1664 
C 1146 2330 1600 2688 2010 2688 
C 2413 2688 2483 2342 2483 1978 
L 2483 486 
C 2483 198 2413 198 1984 198 
L 1984 0 
L 2707 19 
L 3424 0 
z
" transform="scale(0.015625)"/>
       <path id="LMRoman10-Regular-74" d="M 2125 794 
L 2125 1158 
L 1965 1158 
L 1965 806 
C 1965 333 1773 90 1536 90 
C 1107 90 1107 672 1107 781 
L 1107 2560 
L 2022 2560 
L 2022 2758 
L 1107 2758 
L 1107 3936 
L 947 3936 
C 941 3411 749 2726 122 2701 
L 122 2560 
L 666 2560 
L 666 794 
C 666 6 1261 -70 1491 -70 
C 1946 -70 2125 384 2125 794 
z
" transform="scale(0.015625)"/>
       <path id="LMRoman10-Regular-29" d="M 1850 1600 
C 1850 2099 1779 2874 1427 3597 
C 1043 4384 493 4800 429 4800 
C 390 4800 365 4774 365 4736 
C 365 4717 365 4704 486 4589 
C 1114 3955 1478 2938 1478 1600 
C 1478 506 1242 -621 448 -1427 
C 365 -1504 365 -1517 365 -1536 
C 365 -1574 390 -1600 429 -1600 
C 493 -1600 1069 -1165 1446 -352 
C 1773 352 1850 1062 1850 1600 
z
" transform="scale(0.015625)"/>
      </defs>
      <use xlink:href="#LMRoman10-Regular-42"/>
      <use xlink:href="#LMRoman10-Regular-61" x="70.799988"/>
      <use xlink:href="#LMRoman10-Regular-63" x="120.799973"/>
      <use xlink:href="#LMRoman10-Regular-6b" x="165.199966"/>
      <use xlink:href="#LMRoman10-Regular-67" x="217.999954"/>
      <use xlink:href="#LMRoman10-Regular-72" x="267.999939"/>
      <use xlink:href="#LMRoman10-Regular-6f" x="307.199936"/>
      <use xlink:href="#LMRoman10-Regular-75" x="357.199921"/>
      <use xlink:href="#LMRoman10-Regular-6e" x="412.799911"/>
      <use xlink:href="#LMRoman10-Regular-64" x="468.399902"/>
      <use xlink:href="#LMRoman10-Regular-20" x="523.999893"/>
      <use xlink:href="#LMRoman10-Regular-6e" x="557.299881"/>
      <use xlink:href="#LMRoman10-Regular-6f" x="612.899872"/>
      <use xlink:href="#LMRoman10-Regular-69" x="662.899857"/>
      <use xlink:href="#LMRoman10-Regular-73" x="690.699844"/>
      <use xlink:href="#LMRoman10-Regular-65" x="730.099838"/>
      <use xlink:href="#LMRoman10-Regular-20" x="774.499832"/>
      <use xlink:href="#LMRoman10-Regular-28" x="807.79982"/>
      <use xlink:href="#LMRoman10-Regular-70" x="846.699814"/>
      <use xlink:href="#LMRoman10-Regular-68" x="902.299805"/>
      <use xlink:href="#LMRoman10-Regular-6f" x="957.899796"/>
      <use xlink:href="#LMRoman10-Regular-74" x="1007.89978"/>
      <use xlink:href="#LMRoman10-Regular-6f" x="1046.799774"/>
      <use xlink:href="#LMRoman10-Regular-6e" x="1096.799759"/>
      <use xlink:href="#LMRoman10-Regular-73" x="1152.39975"/>
      <use xlink:href="#LMRoman10-Regular-29" x="1191.799744"/>
     </g>
    </g>
   </g>
   <g id="matplotlib.axis_2">
    <g id="ytick_1">
     <g id="line2d_13">
      <path d="M 41 275.687271 
L 398.12 275.687271 
" clip-path="url(#pb88a331a4f)" style="fill: none; stroke: #b0b0b0; stroke-width: 0.8; stroke-linecap: square"/>
     </g>
     <g id="line2d_14">
      <defs>
       <path id="m9078c175fc" d="M 0 0 
L -3.5 0 
" style="stroke: #000000; stroke-width: 0.8"/>
      </defs>
      <g>
       <use xlink:href="#m9078c175fc" x="41" y="275.687271" style="stroke: #000000; stroke-width: 0.8"/>
      </g>
     </g>
     <g id="text_8">
      <!-- $\mathdefault{0.0}$ -->
      <g transform="translate(21.2 279.157583) scale(0.1 -0.1)">
       <defs>
        <path id="LMRoman10-Regular-2e" d="M 1229 339 
C 1229 525 1075 678 890 678 
C 704 678 550 525 550 339 
C 550 154 704 0 890 0 
C 1075 0 1229 154 1229 339 
z
" transform="scale(0.015625)"/>
       </defs>
       <use xlink:href="#LMRoman10-Regular-30" transform="translate(0 0.40625)"/>
       <use xlink:href="#LMRoman10-Regular-2e" transform="translate(49.999985 0.40625)"/>
       <use xlink:href="#LMRoman10-Regular-30" transform="translate(77.799973 0.40625)"/>
      </g>
     </g>
    </g>
    <g id="ytick_2">
     <g id="line2d_15">
      <path d="M 41 230.38177 
L 398.12 230.38177 
" clip-path="url(#pb88a331a4f)" style="fill: none; stroke: #b0b0b0; stroke-width: 0.8; stroke-linecap: square"/>
     </g>
     <g id="line2d_16">
      <g>
       <use xlink:href="#m9078c175fc" x="41" y="230.38177" style="stroke: #000000; stroke-width: 0.8"/>
      </g>
     </g>
     <g id="text_9">
      <!-- $\mathdefault{0.2}$ -->
      <g transform="translate(21.2 233.852082) scale(0.1 -0.1)">
       <use xlink:href="#LMRoman10-Regular-30" transform="translate(0 0.40625)"/>
       <use xlink:href="#LMRoman10-Regular-2e" transform="translate(49.999985 0.40625)"/>
       <use xlink:href="#LMRoman10-Regular-32" transform="translate(77.799973 0.40625)"/>
      </g>
     </g>
    </g>
    <g id="ytick_3">
     <g id="line2d_17">
      <path d="M 41 185.076269 
L 398.12 185.076269 
" clip-path="url(#pb88a331a4f)" style="fill: none; stroke: #b0b0b0; stroke-width: 0.8; stroke-linecap: square"/>
     </g>
     <g id="line2d_18">
      <g>
       <use xlink:href="#m9078c175fc" x="41" y="185.076269" style="stroke: #000000; stroke-width: 0.8"/>
      </g>
     </g>
     <g id="text_10">
      <!-- $\mathdefault{0.4}$ -->
      <g transform="translate(21.2 188.546581) scale(0.1 -0.1)">
       <use xlink:href="#LMRoman10-Regular-30" transform="translate(0 0.296875)"/>
       <use xlink:href="#LMRoman10-Regular-2e" transform="translate(49.999985 0.296875)"/>
       <use xlink:href="#LMRoman10-Regular-34" transform="translate(77.799973 0.296875)"/>
      </g>
     </g>
    </g>
    <g id="ytick_4">
     <g id="line2d_19">
      <path d="M 41 139.770768 
L 398.12 139.770768 
" clip-path="url(#pb88a331a4f)" style="fill: none; stroke: #b0b0b0; stroke-width: 0.8; stroke-linecap: square"/>
     </g>
     <g id="line2d_20">
      <g>
       <use xlink:href="#m9078c175fc" x="41" y="139.770768" style="stroke: #000000; stroke-width: 0.8"/>
      </g>
     </g>
     <g id="text_11">
      <!-- $\mathdefault{0.6}$ -->
      <g transform="translate(21.2 143.241081) scale(0.1 -0.1)">
       <use xlink:href="#LMRoman10-Regular-30" transform="translate(0 0.40625)"/>
       <use xlink:href="#LMRoman10-Regular-2e" transform="translate(49.999985 0.40625)"/>
       <use xlink:href="#LMRoman10-Regular-36" transform="translate(77.799973 0.40625)"/>
      </g>
     </g>
    </g>
    <g id="ytick_5">
     <g id="line2d_21">
      <path d="M 41 94.465267 
L 398.12 94.465267 
" clip-path="url(#pb88a331a4f)" style="fill: none; stroke: #b0b0b0; stroke-width: 0.8; stroke-linecap: square"/>
     </g>
     <g id="line2d_22">
      <g>
       <use xlink:href="#m9078c175fc" x="41" y="94.465267" style="stroke: #000000; stroke-width: 0.8"/>
      </g>
     </g>
     <g id="text_12">
      <!-- $\mathdefault{0.8}$ -->
      <g transform="translate(21.2 97.93558) scale(0.1 -0.1)">
       <use xlink:href="#LMRoman10-Regular-30" transform="translate(0 0.40625)"/>
       <use xlink:href="#LMRoman10-Regular-2e" transform="translate(49.999985 0.40625)"/>
       <use xlink:href="#LMRoman10-Regular-38" transform="translate(77.799973 0.40625)"/>
      </g>
     </g>
    </g>
    <g id="ytick_6">
     <g id="line2d_23">
      <path d="M 41 49.159766 
L 398.12 49.159766 
" clip-path="url(#pb88a331a4f)" style="fill: none; stroke: #b0b0b0; stroke-width: 0.8; stroke-linecap: square"/>
     </g>
     <g id="line2d_24">
      <g>
       <use xlink:href="#m9078c175fc" x="41" y="49.159766" style="stroke: #000000; stroke-width: 0.8"/>
      </g>
     </g>
     <g id="text_13">
      <!-- $\mathdefault{1.0}$ -->
      <g transform="translate(21.2 52.630079) scale(0.1 -0.1)">
       <use xlink:href="#LMRoman10-Regular-31" transform="translate(0 0.40625)"/>
       <use xlink:href="#LMRoman10-Regular-2e" transform="translate(49.999985 0.40625)"/>
       <use xlink:href="#LMRoman10-Regular-30" transform="translate(77.799973 0.40625)"/>
      </g>
     </g>
    </g>
    <g id="text_14">
     <!-- Classical Fisher infomation (a.u.) -->
     <g transform="translate(14.7 227.533969) rotate(-90) scale(0.1 -0.1)">
      <defs>
       <path id="LMRoman10-Regular-43" d="M 4256 1491 
C 4256 1555 4256 1600 4173 1600 
C 4102 1600 4102 1562 4096 1498 
C 4045 582 3360 58 2662 58 
C 2272 58 1018 275 1018 2182 
C 1018 4096 2266 4314 2656 4314 
C 3354 4314 3923 3731 4051 2797 
C 4064 2707 4064 2688 4154 2688 
C 4256 2688 4256 2707 4256 2842 
L 4256 4358 
C 4256 4467 4256 4512 4186 4512 
C 4160 4512 4134 4512 4083 4435 
L 3763 3962 
C 3526 4192 3200 4512 2586 4512 
C 1389 4512 358 3494 358 2189 
C 358 864 1395 -141 2586 -141 
C 3629 -141 4256 749 4256 1491 
z
" transform="scale(0.015625)"/>
       <path id="LMRoman10-Regular-6c" d="M 1632 0 
L 1632 198 
C 1203 198 1133 198 1133 486 
L 1133 4442 
L 211 4371 
L 211 4173 
C 659 4173 710 4128 710 3814 
L 710 486 
C 710 198 640 198 211 198 
L 211 0 
L 922 19 
L 1632 0 
z
" transform="scale(0.015625)"/>
       <path id="LMRoman10-Regular-46" d="M 3904 2912 
L 3725 4352 
L 211 4352 
L 211 4154 
L 365 4154 
C 858 4154 870 4083 870 3853 
L 870 499 
C 870 269 858 198 365 198 
L 211 198 
L 211 0 
C 435 19 934 19 1184 19 
C 1446 19 2029 19 2259 0 
L 2259 198 
L 2048 198 
C 1440 198 1440 282 1440 506 
L 1440 2080 
L 1990 2080 
C 2605 2080 2669 1875 2669 1331 
L 2829 1331 
L 2829 3027 
L 2669 3027 
C 2669 2490 2605 2278 1990 2278 
L 1440 2278 
L 1440 3898 
C 1440 4109 1453 4154 1754 4154 
L 2522 4154 
C 3482 4154 3642 3795 3744 2912 
L 3904 2912 
z
" transform="scale(0.015625)"/>
       <path id="LMRoman10-Regular-66" d="M 2285 4064 
C 2285 4301 2048 4512 1709 4512 
C 1261 4512 717 4173 717 3494 
L 717 2758 
L 211 2758 
L 211 2560 
L 717 2560 
L 717 486 
C 717 198 646 198 218 198 
L 218 0 
L 947 19 
C 1203 19 1504 19 1760 0 
L 1760 198 
L 1626 198 
C 1152 198 1139 269 1139 499 
L 1139 2560 
L 1869 2560 
L 1869 2758 
L 1120 2758 
L 1120 3501 
C 1120 4064 1427 4371 1709 4371 
C 1728 4371 1824 4371 1920 4326 
C 1843 4301 1728 4218 1728 4058 
C 1728 3910 1830 3782 2003 3782 
C 2189 3782 2285 3910 2285 4064 
z
" transform="scale(0.015625)"/>
       <path id="LMRoman10-Regular-6d" d="M 5203 0 
L 5203 198 
C 4870 198 4710 198 4704 390 
L 4704 1613 
C 4704 2163 4704 2362 4506 2592 
C 4416 2701 4205 2829 3834 2829 
C 3296 2829 3014 2445 2906 2202 
C 2816 2758 2342 2829 2054 2829 
C 1587 2829 1286 2554 1107 2157 
L 1107 2829 
L 205 2758 
L 205 2560 
C 653 2560 704 2515 704 2202 
L 704 486 
C 704 198 634 198 205 198 
L 205 0 
L 928 19 
L 1645 0 
L 1645 198 
C 1216 198 1146 198 1146 486 
L 1146 1664 
C 1146 2330 1600 2688 2010 2688 
C 2413 2688 2483 2342 2483 1978 
L 2483 486 
C 2483 198 2413 198 1984 198 
L 1984 0 
L 2707 19 
L 3424 0 
L 3424 198 
C 2995 198 2925 198 2925 486 
L 2925 1664 
C 2925 2330 3379 2688 3789 2688 
C 4192 2688 4262 2342 4262 1978 
L 4262 486 
C 4262 198 4192 198 3763 198 
L 3763 0 
L 4486 19 
L 5203 0 
z
" transform="scale(0.015625)"/>
      </defs>
      <use xlink:href="#LMRoman10-Regular-43"/>
      <use xlink:href="#LMRoman10-Regular-6c" x="72.199982"/>
      <use xlink:href="#LMRoman10-Regular-61" x="99.999969"/>
      <use xlink:href="#LMRoman10-Regular-73" x="149.999954"/>
      <use xlink:href="#LMRoman10-Regular-73" x="189.399948"/>
      <use xlink:href="#LMRoman10-Regular-69" x="228.799942"/>
      <use xlink:href="#LMRoman10-Regular-63" x="256.59993"/>
      <use xlink:href="#LMRoman10-Regular-61" x="300.999924"/>
      <use xlink:href="#LMRoman10-Regular-6c" x="350.999908"/>
      <use xlink:href="#LMRoman10-Regular-20" x="378.799896"/>
      <use xlink:href="#LMRoman10-Regular-46" x="412.099884"/>
      <use xlink:href="#LMRoman10-Regular-69" x="477.399872"/>
      <use xlink:href="#LMRoman10-Regular-73" x="505.19986"/>
      <use xlink:href="#LMRoman10-Regular-68" x="544.599854"/>
      <use xlink:href="#LMRoman10-Regular-65" x="600.199844"/>
      <use xlink:href="#LMRoman10-Regular-72" x="644.599838"/>
      <use xlink:href="#LMRoman10-Regular-20" x="683.799835"/>
      <use xlink:href="#LMRoman10-Regular-69" x="717.099823"/>
      <use xlink:href="#LMRoman10-Regular-6e" x="744.899811"/>
      <use xlink:href="#LMRoman10-Regular-66" x="800.499802"/>
      <use xlink:href="#LMRoman10-Regular-6f" x="831.099792"/>
      <use xlink:href="#LMRoman10-Regular-6d" x="881.099777"/>
      <use xlink:href="#LMRoman10-Regular-61" x="964.399765"/>
      <use xlink:href="#LMRoman10-Regular-74" x="1014.39975"/>
      <use xlink:href="#LMRoman10-Regular-69" x="1053.299744"/>
      <use xlink:href="#LMRoman10-Regular-6f" x="1081.099731"/>
      <use xlink:href="#LMRoman10-Regular-6e" x="1131.099716"/>
      <use xlink:href="#LMRoman10-Regular-20" x="1186.699707"/>
      <use xlink:href="#LMRoman10-Regular-28" x="1219.999695"/>
      <use xlink:href="#LMRoman10-Regular-61" x="1258.899689"/>
      <use xlink:href="#LMRoman10-Regular-2e" x="1308.899673"/>
      <use xlink:href="#LMRoman10-Regular-75" x="1336.699661"/>
      <use xlink:href="#LMRoman10-Regular-2e" x="1392.299652"/>
      <use xlink:href="#LMRoman10-Regular-29" x="1420.09964"/>
     </g>
    </g>
   </g>
   <g id="line2d_25">
    <path d="M 57.232727 49.159766 
L 61.575932 96.975614 
L 67.004938 134.284944 
L 72.433943 158.706765 
L 78.94875 178.789257 
L 85.463557 192.986769 
L 93.064165 205.059836 
L 101.750575 215.158486 
L 111.522785 223.545847 
L 123.466598 231.0976 
L 137.582013 237.614359 
L 154.954831 243.41871 
L 177.756656 248.798938 
L 207.073287 253.545489 
L 247.247929 257.858445 
L 302.623788 261.632133 
L 381.887273 264.900249 
L 381.887273 264.900249 
" clip-path="url(#pb88a331a4f)" style="fill: none; stroke-dasharray: 9.6,2.4,1.5,2.4; stroke-dashoffset: 0; stroke: #0000ff; stroke-width: 1.5"/>
   </g>
   <g id="line2d_26">
    <path d="M 57.232727 33.62475 
L 61.575932 84.719756 
L 67.004938 124.587721 
L 72.433943 150.684365 
L 78.94875 172.144093 
L 85.463557 187.315256 
L 93.064165 200.21628 
L 101.750575 211.007486 
L 111.522785 219.970043 
L 123.466598 228.039687 
L 137.582013 235.003359 
L 154.954831 241.205766 
L 176.670854 246.725014 
L 204.901684 251.713545 
L 242.904725 256.225943 
L 295.02318 260.218863 
L 368.857659 263.702393 
L 381.887273 264.160486 
L 381.887273 264.160486 
" clip-path="url(#pb88a331a4f)" style="fill: none; stroke-dasharray: 9.6,2.4,1.5,2.4; stroke-dashoffset: 0; stroke: #0000ff; stroke-width: 1.5"/>
   </g>
   <g id="line2d_27">
    <path d="M 58.318528 242.286237 
L 60.490131 262.702432 
L 63.747534 268.903033 
L 68.090739 271.541331 
L 75.691347 273.220099 
L 93.064165 274.405935 
L 143.011019 275.149307 
L 367.771858 275.538278 
L 381.887273 275.54475 
L 381.887273 275.54475 
" clip-path="url(#pb88a331a4f)" style="fill: none; stroke-dasharray: 5.55,2.4; stroke-dashoffset: 0; stroke: #008000; stroke-width: 1.5"/>
   </g>
   <g id="line2d_28">
    <path d="M 58.318528 239.99563 
L 60.490131 261.811946 
L 63.747534 268.437777 
L 68.090739 271.257007 
L 75.691347 273.050903 
L 91.978364 274.275658 
L 137.582013 275.073724 
L 327.597215 275.50443 
L 381.887273 275.534976 
L 381.887273 275.534976 
" clip-path="url(#pb88a331a4f)" style="fill: none; stroke-dasharray: 5.55,2.4; stroke-dashoffset: 0; stroke: #008000; stroke-width: 1.5"/>
   </g>
   <g id="patch_3">
    <path d="M 41 287.64075 
L 41 21.52875 
" style="fill: none; stroke: #000000; stroke-width: 0.8; stroke-linejoin: miter; stroke-linecap: square"/>
   </g>
   <g id="patch_4">
    <path d="M 398.12 287.64075 
L 398.12 21.52875 
" style="fill: none; stroke: #000000; stroke-width: 0.8; stroke-linejoin: miter; stroke-linecap: square"/>
   </g>
   <g id="patch_5">
    <path d="M 41 287.64075 
L 398.12 287.64075 
" style="fill: none; stroke: #000000; stroke-width: 0.8; stroke-linejoin: miter; stroke-linecap: square"/>
   </g>
   <g id="patch_6">
    <path d="M 41 21.52875 
L 398.12 21.52875 
" style="fill: none; stroke: #000000; stroke-width: 0.8; stroke-linejoin: miter; stroke-linecap: square"/>
   </g>
   <g id="text_15">
    <!-- sample length: 10 -->
    <g transform="translate(173.52875 15.52875) scale(0.12 -0.12)">
     <defs>
      <path id="LMRoman10-Regular-3a" d="M 1229 2419 
C 1229 2605 1075 2758 890 2758 
C 704 2758 550 2605 550 2419 
C 550 2234 704 2080 890 2080 
C 1075 2080 1229 2234 1229 2419 
z
M 1229 339 
C 1229 525 1075 678 890 678 
C 704 678 550 525 550 339 
C 550 154 704 0 890 0 
C 1075 0 1229 154 1229 339 
z
" transform="scale(0.015625)"/>
     </defs>
     <use xlink:href="#LMRoman10-Regular-73"/>
     <use xlink:href="#LMRoman10-Regular-61" x="39.399994"/>
     <use xlink:href="#LMRoman10-Regular-6d" x="89.399979"/>
     <use xlink:href="#LMRoman10-Regular-70" x="172.699966"/>
     <use xlink:href="#LMRoman10-Regular-6c" x="228.299957"/>
     <use xlink:href="#LMRoman10-Regular-65" x="256.099945"/>
     <use xlink:href="#LMRoman10-Regular-20" x="300.499939"/>
     <use xlink:href="#LMRoman10-Regular-6c" x="333.799927"/>
     <use xlink:href="#LMRoman10-Regular-65" x="361.599915"/>
     <use xlink:href="#LMRoman10-Regular-6e" x="405.999908"/>
     <use xlink:href="#LMRoman10-Regular-67" x="461.599899"/>
     <use xlink:href="#LMRoman10-Regular-74" x="511.599884"/>
     <use xlink:href="#LMRoman10-Regular-68" x="550.499878"/>
     <use xlink:href="#LMRoman10-Regular-3a" x="606.099869"/>
     <use xlink:href="#LMRoman10-Regular-20" x="633.899857"/>
     <use xlink:href="#LMRoman10-Regular-31" x="667.199844"/>
     <use xlink:href="#LMRoman10-Regular-30" x="717.199829"/>
    </g>
   </g>
   <g id="legend_1">
    <g id="patch_7">
     <path d="M 324.80125 57.41 
L 391.12 57.41 
Q 393.12 57.41 393.12 55.41 
L 393.12 28.52875 
Q 393.12 26.52875 391.12 26.52875 
L 324.80125 26.52875 
Q 322.80125 26.52875 322.80125 28.52875 
L 322.80125 55.41 
Q 322.80125 57.41 324.80125 57.41 
z
" style="fill: #ffffff; opacity: 0.8; stroke: #cccccc; stroke-linejoin: miter"/>
    </g>
    <g id="line2d_29">
     <path d="M 326.80125 34.02875 
L 336.80125 34.02875 
L 346.80125 34.02875 
" style="fill: none; stroke-dasharray: 9.6,2.4,1.5,2.4; stroke-dashoffset: 0; stroke: #0000ff; stroke-width: 1.5"/>
    </g>
    <g id="text_16">
     <!-- SPADE -->
     <g transform="translate(354.80125 37.52875) scale(0.1 -0.1)">
      <defs>
       <path id="LMRoman10-Regular-53" d="M 3194 1190 
C 3194 1830 2771 2355 2234 2483 
L 1414 2682 
C 1018 2778 768 3123 768 3494 
C 768 3942 1114 4333 1613 4333 
C 2682 4333 2822 3283 2861 2995 
C 2867 2957 2867 2918 2938 2918 
C 3021 2918 3021 2950 3021 3072 
L 3021 4358 
C 3021 4467 3021 4512 2950 4512 
C 2906 4512 2899 4506 2854 4429 
L 2630 4064 
C 2438 4250 2176 4512 1606 4512 
C 896 4512 358 3949 358 3270 
C 358 2739 698 2272 1197 2099 
C 1267 2074 1594 1997 2042 1888 
C 2214 1843 2406 1798 2586 1562 
C 2720 1395 2784 1184 2784 973 
C 2784 518 2464 58 1926 58 
C 1741 58 1254 90 915 403 
C 544 749 525 1158 518 1389 
C 512 1453 461 1453 442 1453 
C 358 1453 358 1408 358 1293 
L 358 13 
C 358 -96 358 -141 429 -141 
C 474 -141 480 -128 525 -58 
C 525 -58 544 -32 755 307 
C 954 90 1363 -141 1933 -141 
C 2682 -141 3194 486 3194 1190 
z
" transform="scale(0.015625)"/>
       <path id="LMRoman10-Regular-50" d="M 3994 3181 
C 3994 3808 3360 4371 2483 4371 
L 224 4371 
L 224 4173 
L 378 4173 
C 870 4173 883 4102 883 3872 
L 883 499 
C 883 269 870 198 378 198 
L 224 198 
L 224 0 
C 448 19 922 19 1165 19 
C 1408 19 1888 19 2112 0 
L 2112 198 
L 1958 198 
C 1466 198 1453 269 1453 499 
L 1453 2022 
L 2534 2022 
C 3302 2022 3994 2541 3994 3181 
z
M 3334 3181 
C 3334 2880 3334 2189 2317 2189 
L 1434 2189 
L 1434 3917 
C 1434 4128 1446 4173 1747 4173 
L 2317 4173 
C 3334 4173 3334 3494 3334 3181 
z
" transform="scale(0.015625)"/>
       <path id="LMRoman10-Regular-41" d="M 4589 0 
L 4589 198 
L 4474 198 
C 4090 198 4000 243 3930 454 
L 2547 4454 
C 2515 4538 2502 4582 2400 4582 
C 2298 4582 2278 4544 2246 4454 
L 922 627 
C 806 301 550 205 205 198 
L 205 0 
L 858 19 
L 1594 0 
L 1594 198 
C 1274 198 1114 358 1114 525 
C 1114 544 1120 608 1126 621 
L 1421 1459 
L 3002 1459 
L 3341 480 
C 3347 454 3360 416 3360 390 
C 3360 198 3002 198 2829 198 
L 2829 0 
C 3059 19 3507 19 3750 19 
L 4589 0 
z
M 2931 1658 
L 1491 1658 
L 2208 3738 
L 2931 1658 
z
" transform="scale(0.015625)"/>
       <path id="LMRoman10-Regular-44" d="M 4525 2150 
C 4525 3366 3661 4371 2566 4371 
L 224 4371 
L 224 4173 
L 378 4173 
C 870 4173 883 4102 883 3872 
L 883 499 
C 883 269 870 198 378 198 
L 224 198 
L 224 0 
L 2566 0 
C 3642 0 4525 947 4525 2150 
z
M 3885 2150 
C 3885 1440 3763 1056 3533 742 
C 3405 570 3040 198 2394 198 
L 1747 198 
C 1446 198 1434 243 1434 454 
L 1434 3917 
C 1434 4128 1446 4173 1747 4173 
L 2387 4173 
C 2784 4173 3226 4032 3552 3578 
C 3827 3200 3885 2650 3885 2150 
z
" transform="scale(0.015625)"/>
       <path id="LMRoman10-Regular-45" d="M 4173 1651 
L 4013 1651 
C 3853 666 3706 198 2605 198 
L 1754 198 
C 1453 198 1440 243 1440 454 
L 1440 2163 
L 2016 2163 
C 2637 2163 2707 1958 2707 1414 
L 2867 1414 
L 2867 3110 
L 2707 3110 
C 2707 2560 2637 2362 2016 2362 
L 1440 2362 
L 1440 3898 
C 1440 4109 1453 4154 1754 4154 
L 2579 4154 
C 3558 4154 3731 3802 3834 2912 
L 3994 2912 
L 3814 4352 
L 211 4352 
L 211 4154 
L 365 4154 
C 858 4154 870 4083 870 3853 
L 870 499 
C 870 269 858 198 365 198 
L 211 198 
L 211 0 
L 3904 0 
L 4173 1651 
z
" transform="scale(0.015625)"/>
      </defs>
      <use xlink:href="#LMRoman10-Regular-53"/>
      <use xlink:href="#LMRoman10-Regular-50" x="55.599991"/>
      <use xlink:href="#LMRoman10-Regular-41" x="123.699982"/>
      <use xlink:href="#LMRoman10-Regular-44" x="198.699966"/>
      <use xlink:href="#LMRoman10-Regular-45" x="275.09996"/>
     </g>
    </g>
    <g id="line2d_30">
     <path d="M 326.80125 47.969375 
L 336.80125 47.969375 
L 346.80125 47.969375 
" style="fill: none; stroke-dasharray: 5.55,2.4; stroke-dashoffset: 0; stroke: #008000; stroke-width: 1.5"/>
    </g>
    <g id="text_17">
     <!-- DI -->
     <g transform="translate(354.80125 51.469375) scale(0.1 -0.1)">
      <defs>
       <path id="LMRoman10-Regular-49" d="M 2131 0 
L 2131 198 
L 1965 198 
C 1459 198 1440 269 1440 499 
L 1440 3872 
C 1440 4102 1459 4173 1965 4173 
L 2131 4173 
L 2131 4371 
C 1907 4352 1402 4352 1158 4352 
C 909 4352 403 4352 179 4371 
L 179 4173 
L 346 4173 
C 851 4173 870 4102 870 3872 
L 870 499 
C 870 269 851 198 346 198 
L 179 198 
L 179 0 
C 403 19 909 19 1152 19 
C 1402 19 1907 19 2131 0 
z
" transform="scale(0.015625)"/>
      </defs>
      <use xlink:href="#LMRoman10-Regular-44"/>
      <use xlink:href="#LMRoman10-Regular-49" x="76.399994"/>
     </g>
    </g>
   </g>
  </g>
 </g>
 <defs>
  <clipPath id="pb88a331a4f">
   <rect x="41" y="21.52875" width="357.12" height="266.112"/>
  </clipPath>
 </defs>
</svg>
